<?xml version="1.0" standalone="no"?>
<!DOCTYPE svg PUBLIC "-//W3C//DTD SVG 20010904//EN"
 "http://www.w3.org/TR/2001/REC-SVG-20010904/DTD/svg10.dtd">
<svg version="1.0" xmlns="http://www.w3.org/2000/svg"
 width="512.000000pt" height="512.000000pt" viewBox="0 0 512.000000 512.000000"
 preserveAspectRatio="xMidYMid meet">

<g transform="translate(0.000000,512.000000) scale(0.100000,-0.100000)"
fill="#000000" stroke="none">
<path d="M320 4947 c-49 -16 -133 -102 -148 -153 -17 -58 -18 -4408 0 -4465
16 -55 73 -118 132 -145 l51 -24 1565 0 c1553 0 1565 1 1610 21 60 27 98 64
126 124 23 48 24 59 24 288 l0 238 -25 24 c-32 33 -78 33 -110 0 l-25 -24 0
-231 0 -231 -25 -24 -24 -25 -1551 0 -1551 0 -24 25 -25 24 0 2191 0 2191 25
24 24 25 1256 0 1255 0 0 -216 c0 -257 5 -279 75 -349 70 -70 92 -75 349 -75
l216 0 0 -815 0 -816 25 -24 c32 -33 78 -33 110 0 l25 24 0 873 0 873 -343
342 -342 343 -1320 -1 c-932 -1 -1330 -4 -1355 -12z m2905 -447 l180 -180
-158 0 c-154 0 -158 1 -182 25 -24 24 -25 28 -25 180 0 85 1 155 3 155 1 0 83
-81 182 -180z"/>
<path d="M1225 4295 c-16 -15 -25 -36 -25 -55 0 -19 9 -40 25 -55 l24 -25 631
0 631 0 24 25 c16 15 25 36 25 55 0 19 -9 40 -25 55 l-24 25 -631 0 -631 0
-24 -25z"/>
<path d="M665 3815 c-16 -15 -25 -36 -25 -55 0 -19 9 -40 25 -55 l24 -25 911
0 911 0 24 25 c33 32 33 78 0 110 l-24 25 -911 0 -911 0 -24 -25z"/>
<path d="M2745 3815 c-16 -15 -25 -36 -25 -55 0 -19 9 -40 25 -55 24 -25 26
-25 215 -25 189 0 191 0 215 25 16 15 25 36 25 55 0 19 -9 40 -25 55 -24 25
-26 25 -215 25 -189 0 -191 0 -215 -25z"/>
<path d="M665 3335 c-16 -15 -25 -36 -25 -55 0 -19 9 -40 25 -55 l24 -25 1231
0 1231 0 24 25 c33 32 33 78 0 110 l-24 25 -1231 0 -1231 0 -24 -25z"/>
<path d="M4514 3031 c-101 -26 -106 -31 -957 -880 l-827 -826 -85 -297 c-47
-164 -85 -307 -85 -318 0 -25 46 -70 72 -70 10 0 152 38 316 85 l297 85 826
827 c939 941 884 876 884 1038 0 78 -4 98 -28 151 -57 123 -174 202 -310 209
-39 2 -86 1 -103 -4z m177 -174 c59 -32 100 -92 107 -156 6 -69 -17 -126 -73
-181 l-45 -45 -142 143 -142 142 39 41 c77 79 172 100 256 56z m-366 -257 l40
-40 -683 -683 -682 -682 -42 43 -43 42 680 680 c374 374 682 680 685 680 3 0
24 -18 45 -40z m200 -200 l40 -40 -683 -683 -682 -682 -42 43 -43 42 680 680
c374 374 682 680 685 680 3 0 24 -18 45 -40z m-1493 -1481 c-10 -10 -263 -81
-269 -76 -4 5 64 254 74 271 3 4 50 -36 104 -90 54 -54 95 -101 91 -105z"/>
<path d="M683 2868 c-12 -6 -27 -23 -34 -39 -15 -37 4 -87 38 -100 33 -12 379
-12 403 1 25 13 41 65 30 94 -19 51 -40 56 -235 55 -104 0 -189 -5 -202 -11z"/>
<path d="M1323 2868 c-33 -16 -48 -61 -33 -98 7 -17 21 -35 31 -40 24 -13
1824 -13 1848 0 10 5 24 23 31 40 15 35 0 84 -31 100 -26 14 -1817 12 -1846
-2z"/>
<path d="M665 2375 c-16 -15 -25 -36 -25 -55 0 -19 9 -40 25 -55 l24 -25 1231
0 1231 0 24 25 c33 32 33 78 0 110 l-24 25 -1231 0 -1231 0 -24 -25z"/>
<path d="M665 1895 c-16 -15 -25 -36 -25 -55 0 -19 9 -40 25 -55 l24 -25 751
0 751 0 24 25 c33 32 33 78 0 110 l-24 25 -751 0 -751 0 -24 -25z"/>
<path d="M2425 1895 c-16 -15 -25 -36 -25 -55 0 -19 9 -40 25 -55 24 -25 26
-25 215 -25 189 0 191 0 215 25 16 15 25 36 25 55 0 19 -9 40 -25 55 -24 25
-26 25 -215 25 -189 0 -191 0 -215 -25z"/>
<path d="M665 1415 c-16 -15 -25 -36 -25 -55 0 -19 9 -40 25 -55 l24 -25 831
0 831 0 24 25 c33 32 33 78 0 110 l-24 25 -831 0 -831 0 -24 -25z"/>
<path d="M665 935 c-16 -15 -25 -36 -25 -55 0 -19 9 -40 25 -55 24 -25 26 -25
215 -25 189 0 191 0 215 25 16 15 25 36 25 55 0 19 -9 40 -25 55 -24 25 -26
25 -215 25 -189 0 -191 0 -215 -25z"/>
<path d="M1305 935 c-16 -15 -25 -36 -25 -55 0 -19 9 -40 25 -55 l24 -25 431
0 431 0 24 25 c16 15 25 36 25 55 0 19 -9 40 -25 55 l-24 25 -431 0 -431 0
-24 -25z"/>
</g>
</svg>
