<?xml version="1.0" standalone="no"?>
<!DOCTYPE svg PUBLIC "-//W3C//DTD SVG 20010904//EN"
 "http://www.w3.org/TR/2001/REC-SVG-20010904/DTD/svg10.dtd">
<svg version="1.0" xmlns="http://www.w3.org/2000/svg"
 width="512.000000pt" height="512.000000pt" viewBox="0 0 512.000000 512.000000"
 preserveAspectRatio="xMidYMid meet">

<g transform="translate(0.000000,512.000000) scale(0.100000,-0.100000)"
fill="#000000" stroke="none">
<path d="M653 4899 c-131 -22 -252 -96 -334 -206 -54 -71 -85 -145 -99 -241
-7 -45 -10 -686 -8 -1937 l3 -1870 22 -65 c56 -164 185 -292 347 -343 l71 -22
1905 0 1905 0 71 22 c165 52 295 182 347 348 l22 70 0 1905 0 1905 -22 70
c-52 164 -177 292 -342 348 l-66 22 -1885 1 c-1037 1 -1908 -2 -1937 -7z
m1762 -321 c21 -62 53 -143 72 -180 92 -178 281 -309 487 -337 50 -7 365 -11
897 -11 l819 0 -2 -1702 -3 -1703 -23 -42 c-33 -63 -74 -106 -134 -139 l-53
-29 -1915 0 -1915 0 -53 29 c-60 33 -101 76 -134 139 l-23 42 -3 1894 c-1
1268 1 1906 8 1931 23 87 118 184 204 209 17 5 405 10 883 10 l851 1 37 -112z
m2113 78 c60 -34 101 -76 134 -139 17 -33 23 -64 26 -144 l4 -103 -849 0
c-925 0 -901 -1 -1001 57 -103 59 -161 135 -211 276 l-31 87 938 -2 937 -3 53
-29z"/>
<path d="M904 4461 c-89 -54 -47 -191 57 -191 74 0 124 75 95 143 -15 38 -59
67 -98 67 -13 0 -37 -9 -54 -19z"/>
<path d="M1350 4473 c-30 -11 -60 -47 -66 -81 -19 -99 105 -164 177 -93 78 79
-7 212 -111 174z"/>
<path d="M1758 4463 c-56 -36 -66 -117 -19 -164 72 -71 196 -6 177 93 -13 70
-99 109 -158 71z"/>
<path d="M2491 3453 c-24 -23 -43 -71 -106 -263 -87 -265 -120 -335 -181 -389
-43 -37 -151 -101 -173 -101 -6 0 -11 16 -11 36 0 46 -14 70 -50 89 -24 13
-86 15 -374 15 -246 0 -353 -3 -371 -12 -57 -26 -55 0 -55 -849 l0 -781 34
-34 34 -34 352 0 c239 0 358 4 373 11 36 18 57 52 57 92 0 20 4 37 9 37 4 0
51 -20 104 -45 53 -25 133 -56 179 -68 82 -22 94 -22 723 -22 l640 0 60 29
c76 38 143 105 181 181 l29 60 0 580 0 580 -29 60 c-38 76 -105 143 -181 181
l-60 29 -286 3 -287 3 -7 101 c-12 171 -58 283 -159 384 -96 96 -229 154 -353
154 -55 0 -66 -4 -92 -27z m216 -219 c61 -30 117 -89 146 -153 18 -39 22 -72
27 -219 l5 -174 33 -29 32 -29 328 0 c320 0 329 -1 372 -22 31 -16 51 -36 67
-67 l23 -44 0 -512 0 -512 -23 -43 c-16 -30 -37 -51 -68 -68 l-44 -23 -595 3
c-686 4 -627 -4 -863 114 l-127 64 2 468 3 467 135 69 c114 59 146 81 205 140
90 91 118 146 200 394 38 116 72 202 79 202 7 0 35 -12 63 -26z m-897 -1249
l0 -645 -215 0 -215 0 0 645 0 645 215 0 215 0 0 -645z"/>
</g>
</svg>
