<?xml version="1.0" standalone="no"?>
<!DOCTYPE svg PUBLIC "-//W3C//DTD SVG 20010904//EN"
 "http://www.w3.org/TR/2001/REC-SVG-20010904/DTD/svg10.dtd">
<svg version="1.0" xmlns="http://www.w3.org/2000/svg"
 width="512.000000pt" height="512.000000pt" viewBox="0 0 512.000000 512.000000"
 preserveAspectRatio="xMidYMid meet">

<g transform="translate(0.000000,512.000000) scale(0.100000,-0.100000)"
fill="#000000" stroke="none">
<path d="M870 5111 c-82 -25 -151 -94 -175 -175 -23 -75 -23 -4677 0 -4752 18
-60 72 -127 129 -157 l41 -22 1695 0 1695 0 41 22 c57 30 111 97 129 157 13
43 15 303 15 1956 0 1709 -2 1912 -16 1961 -15 52 -34 73 -472 512 -254 255
-475 468 -497 480 l-40 22 -1260 2 c-693 1 -1271 -2 -1285 -6z m2460 -461 l0
-300 -60 0 c-51 0 -65 -4 -85 -25 l-25 -24 0 -546 0 -546 25 -25 26 -26 192 4
c188 3 193 4 245 31 70 37 128 97 161 166 22 47 26 69 26 141 -1 96 -20 151
-75 214 l-33 37 21 27 c46 58 74 114 85 172 l12 60 212 0 213 0 -2 -1896 -3
-1896 -28 -24 -28 -24 -1649 0 -1649 0 -28 24 -28 24 0 2342 0 2342 28 24 28
24 1210 0 1209 0 0 -300z m495 -150 l320 -320 -293 0 -294 0 -29 29 -29 29 0
291 c0 160 1 291 3 291 1 0 146 -144 322 -320z m-470 -341 c11 -33 75 -98 119
-121 27 -14 67 -23 119 -26 54 -3 77 -8 77 -18 0 -25 -22 -69 -48 -98 -42 -45
-80 -56 -192 -56 l-100 0 0 170 c0 158 8 204 25 149z m208 -503 c39 -16 82
-61 96 -99 28 -73 -5 -162 -73 -202 -38 -22 -54 -25 -149 -25 l-107 0 0 170 0
170 100 0 c63 0 113 -5 133 -14z"/>
<path d="M1396 4329 c-32 -26 -36 -84 -7 -120 18 -22 28 -24 125 -27 l106 -4
0 -399 0 -400 -25 -24 c-54 -54 -145 -13 -145 65 0 30 -53 80 -85 80 -16 0
-38 -12 -56 -29 -34 -34 -38 -74 -14 -141 77 -220 379 -229 476 -15 17 37 19
75 19 453 l0 412 99 0 c89 0 103 2 125 23 40 34 43 77 11 115 l-27 32 -288 0
c-276 0 -288 -1 -314 -21z"/>
<path d="M2465 4340 c-55 -17 -139 -75 -171 -117 -18 -23 -42 -68 -54 -99 -20
-55 -21 -71 -18 -388 l3 -331 34 -63 c38 -70 89 -119 160 -154 67 -33 215 -33
282 0 71 35 122 84 160 154 l34 63 0 345 0 345 -26 55 c-36 77 -78 121 -151
160 -54 29 -74 34 -143 37 -44 1 -93 -2 -110 -7z m181 -185 c28 -16 49 -39 63
-68 20 -41 21 -59 21 -333 0 -281 -1 -291 -22 -334 -29 -56 -84 -90 -148 -90
-64 0 -119 34 -147 90 -22 43 -23 53 -23 336 0 285 0 292 23 335 45 85 148
114 233 64z"/>
<path d="M1273 2884 c-50 -18 -112 -75 -138 -129 -27 -55 -27 -165 -1 -219 79
-159 286 -194 410 -70 193 192 -12 509 -271 418z m151 -180 c54 -55 14 -144
-65 -144 -26 0 -79 53 -79 79 0 79 89 119 144 65z"/>
<path d="M1905 2705 c-31 -30 -33 -83 -6 -116 l19 -24 1009 -3 c717 -2 1016 1
1035 9 52 21 61 97 16 139 -22 20 -31 20 -1035 20 l-1014 0 -24 -25z"/>
<path d="M1305 2211 c-104 -27 -181 -117 -192 -226 -21 -198 191 -340 368
-247 186 97 183 357 -5 454 -43 22 -125 31 -171 19z m116 -190 c37 -38 39 -82
4 -116 -51 -52 -145 -16 -145 55 0 40 47 90 85 90 16 0 38 -12 56 -29z"/>
<path d="M1925 2038 c-51 -29 -61 -93 -20 -133 l24 -25 1016 0 1016 0 24 25
c35 34 33 78 -4 116 l-29 29 -1004 0 c-736 -1 -1008 -4 -1023 -12z"/>
<path d="M1311 1529 c-71 -14 -137 -65 -174 -134 -17 -31 -22 -58 -22 -115 0
-88 22 -137 81 -190 52 -45 99 -62 169 -62 70 0 117 17 169 62 59 53 81 102
81 190 0 88 -22 137 -81 190 -63 55 -139 75 -223 59z m119 -197 c60 -76 -32
-172 -114 -118 -51 33 -45 109 11 137 41 20 78 14 103 -19z"/>
<path d="M1943 1363 c-30 -6 -63 -49 -63 -84 0 -15 11 -41 24 -56 l24 -28
1017 0 1017 0 24 28 c31 36 31 78 0 114 l-24 28 -999 1 c-549 1 -1008 -1
-1020 -3z"/>
<path d="M1252 824 c-189 -94 -187 -356 3 -457 56 -30 164 -30 220 0 146 78
189 257 92 385 -72 95 -207 126 -315 72z m173 -169 c35 -34 33 -78 -4 -116
-18 -17 -40 -29 -56 -29 -38 0 -85 50 -85 90 0 44 39 80 85 80 25 0 44 -8 60
-25z"/>
<path d="M1905 655 c-27 -27 -33 -79 -12 -106 29 -38 42 -39 586 -39 l529 0
31 26 c40 33 43 83 6 119 l-24 25 -546 0 -546 0 -24 -25z"/>
</g>
</svg>
