<?xml version="1.0" standalone="no"?>
<!DOCTYPE svg PUBLIC "-//W3C//DTD SVG 20010904//EN"
 "http://www.w3.org/TR/2001/REC-SVG-20010904/DTD/svg10.dtd">
<svg version="1.0" xmlns="http://www.w3.org/2000/svg"
 width="512.000000pt" height="512.000000pt" viewBox="0 0 512.000000 512.000000"
 preserveAspectRatio="xMidYMid meet">

<g transform="translate(0.000000,512.000000) scale(0.100000,-0.100000)"
fill="#000000" stroke="none">
<path d="M357 5102 c-16 -17 -17 -208 -17 -2544 0 -2433 1 -2526 18 -2541 17
-16 160 -17 1854 -17 1765 0 1836 1 1851 18 16 17 17 85 17 774 l0 756 76 36
c261 124 440 328 542 618 49 138 73 282 79 469 9 263 -5 319 -81 319 -51 0
-203 28 -276 51 -96 30 -197 83 -270 142 l-65 53 -3 924 c-2 842 -4 925 -19
942 -15 17 -88 18 -1853 18 -1767 0 -1838 -1 -1853 -18z m3603 -980 l0 -878
-37 -36 c-112 -107 -301 -183 -522 -210 -69 -9 -98 -17 -111 -31 -24 -25 -35
-152 -27 -317 26 -515 242 -886 623 -1067 l74 -35 0 -714 0 -714 -1750 0
-1750 0 0 2440 0 2440 1750 0 1750 0 0 -878z m163 -1072 c112 -74 309 -147
452 -165 92 -12 85 -1 85 -143 0 -508 -194 -876 -550 -1046 -41 -20 -80 -36
-86 -36 -27 0 -198 95 -264 147 -167 130 -290 346 -345 604 -21 98 -37 315
-30 391 l7 67 36 6 c94 15 234 50 302 76 84 32 207 102 260 147 l35 30 25 -22
c14 -13 47 -38 73 -56z"/>
<path d="M2135 4464 c-236 -21 -455 -123 -620 -289 -208 -207 -308 -483 -283
-785 26 -333 237 -639 543 -790 159 -78 237 -95 440 -94 141 0 183 4 247 22
338 93 601 355 700 698 20 69 23 101 23 254 0 153 -3 185 -23 255 -122 421
-476 705 -907 728 -44 2 -98 3 -120 1z m264 -140 c256 -57 473 -230 587 -469
61 -127 76 -189 81 -345 6 -155 -12 -254 -67 -378 l-32 -70 -84 64 c-389 293
-998 286 -1372 -17 l-60 -48 -30 67 c-38 86 -40 93 -58 177 -19 90 -19 261 0
352 33 159 112 307 227 424 215 219 512 309 808 243z m73 -1132 c154 -41 289
-110 387 -198 l43 -39 -70 -72 c-124 -127 -282 -214 -451 -248 -102 -21 -302
-16 -396 10 -147 40 -340 161 -428 269 l-37 44 52 47 c108 97 258 165 443 201
104 20 358 12 457 -14z"/>
<path d="M2117 4016 c-159 -59 -236 -222 -177 -379 24 -63 84 -127 149 -159
63 -31 176 -32 241 -2 151 70 213 258 134 403 -50 94 -129 142 -239 148 -44 2
-84 -2 -108 -11z m191 -132 c35 -26 72 -99 72 -144 0 -20 -10 -56 -22 -80 -26
-52 -89 -90 -148 -90 -59 0 -122 38 -147 90 -27 52 -29 96 -8 147 32 77 80
105 168 100 37 -2 67 -10 85 -23z"/>
<path d="M900 2057 c-18 -9 -26 -22 -28 -45 -6 -65 -40 -62 628 -62 668 0 634
-3 628 62 -6 59 4 58 -628 58 -442 0 -581 -3 -600 -13z"/>
<path d="M886 1574 c-22 -21 -20 -67 2 -87 17 -16 98 -17 964 -17 903 0 946 1
961 18 21 23 22 66 1 86 -14 14 -115 16 -964 16 -849 0 -950 -2 -964 -16z"/>
<path d="M900 1107 c-18 -9 -26 -22 -28 -45 -7 -67 -91 -62 1134 -62 l1113 0
15 22 c22 31 20 45 -9 73 l-24 25 -1088 0 c-854 0 -1093 -3 -1113 -13z"/>
<path d="M886 624 c-22 -21 -20 -67 2 -87 17 -16 88 -17 818 -17 625 0 804 3
817 12 28 22 32 63 8 87 -21 21 -23 21 -825 21 -718 0 -806 -2 -820 -16z"/>
<path d="M4093 2478 l-243 -242 -73 72 c-46 46 -80 72 -95 72 -27 0 -62 -33
-62 -60 0 -38 199 -230 239 -230 8 0 138 123 288 272 197 197 273 279 273 295
0 29 -33 63 -62 63 -15 0 -95 -73 -265 -242z"/>
</g>
</svg>
