<?xml version="1.0" standalone="no"?>
<!DOCTYPE svg PUBLIC "-//W3C//DTD SVG 1.1//EN" "http://www.w3.org/Graphics/SVG/1.1/DTD/svg11.dtd" >
<svg xmlns="http://www.w3.org/2000/svg">
<metadata>Generated by IcoMoon</metadata>
<defs>
<font id="icomoon" horiz-adv-x="1024">
<font-face units-per-em="1024" ascent="960" descent="-64" />
<missing-glyph horiz-adv-x="1024" />
<glyph unicode="&#x20;" horiz-adv-x="512" d="" />
<glyph unicode="&#xe900;" glyph-name="customer-review" d="M130.6 915.8c-26.2-4.4-50.4-19.2-66.8-41.2-10.8-14.2-17-29-19.8-48.2-1.4-9-2-137.2-1.6-387.4l0.6-374 4.4-13c11.2-32.8 37-58.4 69.4-68.6l14.2-4.4h762l14.2 4.4c33 10.4 59 36.4 69.4 69.6l4.4 14v762l-4.4 14c-10.4 32.8-35.4 58.4-68.4 69.6l-13.2 4.4-377 0.2c-207.4 0.2-381.6-0.4-387.4-1.4zM483 851.6c4.2-12.4 10.6-28.6 14.4-36 18.4-35.6 56.2-61.8 97.4-67.4 10-1.4 73-2.2 179.4-2.2h163.8l-0.4-340.4-0.6-340.6-4.6-8.4c-6.6-12.6-14.8-21.2-26.8-27.8l-10.6-5.8h-766l-10.6 5.8c-12 6.6-20.2 15.2-26.8 27.8l-4.6 8.4-0.6 378.8c-0.2 253.6 0.2 381.2 1.6 386.2 4.6 17.4 23.6 36.8 40.8 41.8 3.4 1 81 2 176.6 2l170.2 0.2 7.4-22.4zM905.6 867.2c12-6.8 20.2-15.2 26.8-27.8 3.4-6.6 4.6-12.8 5.2-28.8l0.8-20.6h-169.8c-185 0-180.2-0.2-200.2 11.4-20.6 11.8-32.2 27-42.2 55.2l-6.2 17.4 375-1 10.6-5.8zM180.8 828.2c-17.8-10.8-9.4-38.2 11.4-38.2 14.8 0 24.8 15 19 28.6-3 7.6-11.8 13.4-19.6 13.4-2.6 0-7.4-1.8-10.8-3.8zM270 830.6c-6-2.2-12-9.4-13.2-16.2-3.8-19.8 21-32.8 35.4-18.6 15.6 15.8-1.4 42.4-22.2 34.8zM351.6 828.6c-11.2-7.2-13.2-23.4-3.8-32.8 14.4-14.2 39.2-1.2 35.4 18.6-2.6 14-19.8 21.8-31.6 14.2zM498.2 626.6c-4.8-4.6-8.6-14.2-21.2-52.6-17.4-53-24-67-36.2-77.8-8.6-7.4-30.2-20.2-34.6-20.2-1.2 0-2.2 3.2-2.2 7.2 0 9.2-2.8 14-10 17.8-4.8 2.6-17.2 3-74.8 3-49.2 0-70.6-0.6-74.2-2.4-11.4-5.2-11 0-11-169.8v-156.2l13.6-13.6h70.4c47.8 0 71.6 0.8 74.6 2.2 7.2 3.6 11.4 10.4 11.4 18.4 0 4 0.8 7.4 1.8 7.4 0.8 0 10.2-4 20.8-9s26.6-11.2 35.8-13.6c16.4-4.4 18.8-4.4 144.6-4.4h128l12 5.8c15.2 7.6 28.6 21 36.2 36.2l5.8 12v232l-5.8 12c-7.6 15.2-21 28.6-36.2 36.2l-12 5.8-114.6 1.2-1.4 20.2c-2.4 34.2-11.6 56.6-31.8 76.8-19.2 19.2-45.8 30.8-70.6 30.8-11 0-13.2-0.8-18.4-5.4zM541.4 582.8c12.2-6 23.4-17.8 29.2-30.6 3.6-7.8 4.4-14.4 5.4-43.8l1-34.8 6.6-5.8 6.4-5.8h65.6c64 0 65.8-0.2 74.4-4.4 6.2-3.2 10.2-7.2 13.4-13.4l4.6-8.8v-204.8l-4.6-8.6c-3.2-6-7.4-10.2-13.6-13.6l-8.8-4.6-119 0.6c-137.2 0.8-125.4-0.8-172.6 22.8l-25.4 12.8 0.4 93.6 0.6 93.4 27 13.8c22.8 11.8 29.2 16.2 41 28 18 18.2 23.6 29.2 40 78.8 7.6 23.2 14.4 40.4 15.8 40.4s7-2.4 12.6-5.2zM362 333v-129h-86v258h86v-129z" />
<glyph unicode="&#xe901;" glyph-name="profile" d="M71.4 956.4c-3.2-3.4-3.4-41.6-3.4-508.8 0-486.6 0.2-505.2 3.6-508.2 3.4-3.2 32-3.4 370.8-3.4 353 0 367.2 0.2 370.2 3.6 3.2 3.4 3.4 17 3.4 154.8v151.2l15.2 7.2c52.2 24.8 88 65.6 108.4 123.6 9.8 27.6 14.6 56.4 15.8 93.8 1.8 52.6-1 63.8-16.2 63.8-10.2 0-40.6 5.6-55.2 10.2-19.2 6-39.4 16.6-54 28.4l-13 10.6-0.6 184.8c-0.4 168.4-0.8 185-3.8 188.4s-17.6 3.6-370.6 3.6c-353.4 0-367.6-0.2-370.6-3.6zM792 760.4v-175.6l-7.4-7.2c-22.4-21.4-60.2-36.6-104.4-42-13.8-1.8-19.6-3.4-22.2-6.2-4.8-5-7-30.4-5.4-63.4 5.2-103 48.4-177.2 124.6-213.4l14.8-7v-285.6h-700v976h700v-175.6zM824.6 546c22.4-14.8 61.8-29.4 90.4-33 18.4-2.4 17-0.2 17-28.6 0-101.6-38.8-175.2-110-209.2-8.2-4-16-7.2-17.2-7.2-5.4 0-39.6 19-52.8 29.4-33.4 26-58 69.2-69 120.8-4.2 19.6-7.4 63-6 78.2l1.4 13.4 7.2 1.2c18.8 3 46.8 10 60.4 15.2 16.8 6.4 41.4 20.4 52 29.4l7 6 5-4.4c2.8-2.6 9.4-7.6 14.6-11.2zM427 828.8c-47.2-4.2-91-24.6-124-57.8-41.6-41.4-61.6-96.6-56.6-157 5.2-66.6 47.4-127.8 108.6-158 31.8-15.6 47.4-19 88-18.8 28.2 0 36.6 0.8 49.4 4.4 67.6 18.6 120.2 71 140 139.6 4 13.8 4.6 20.2 4.6 50.8s-0.6 37-4.6 51c-24.4 84.2-95.2 141-181.4 145.6-8.8 0.4-19.6 0.6-24 0.2zM479.8 800.8c51.2-11.4 94.6-46 117.4-93.8 12.2-25.4 15.2-37.8 16.2-69 1.2-31-2.4-50.8-13.4-75.6l-6.4-14-16.8 12.8c-77.8 58.6-199.6 57.2-274.4-3.4l-12-9.6-6 13.4c-7.6 17.2-8 18.6-11.6 35.4-3.8 18-3.8 52.2 0 70.4 6.6 31.8 22.4 61.4 45.4 84.8 43 43.8 102.4 61.8 161.6 48.6zM494.4 574.4c30.8-8.2 57.8-22 77.4-39.6l8.6-7.8-14-14.4c-24.8-25.4-56.4-42.8-90.2-49.6-20.4-4.2-60.4-3.2-79.2 2-29.4 8-68 32.2-85.6 53.8l-7.4 8.8 10.4 9.4c21.6 19.4 51.6 33 88.6 40.2 20.8 4 71.6 2.4 91.4-2.8zM423.4 739.2c-31.8-11.8-47.2-44.4-35.4-75.8 4.8-12.6 16.8-25.4 29.8-31.8 12.6-6.2 35.2-6.4 48.2-0.4 30.2 14 42.6 51.6 26.8 80.6-10 18.8-25.8 28.4-47.8 29.6-8.8 0.4-16.8-0.4-21.6-2.2zM461.6 712.8c7-5.2 14.4-19.8 14.4-28.8 0-4-2-11.2-4.4-16-5.2-10.4-17.8-18-29.6-18s-24.4 7.6-29.4 18c-5.4 10.4-5.8 19.2-1.6 29.4 6.4 15.4 16 21 33.6 20 7.4-0.4 13.4-2 17-4.6zM180 347.4c-3.6-1.8-5.2-4.4-5.6-9-1.2-13-8-12.4 125.6-12.4s126.8-0.6 125.6 12.4c-1.2 11.8 0.8 11.6-125.6 11.6-88.4 0-116.2-0.6-120-2.6zM177.2 250.8c-4.4-4.2-4-13.4 0.4-17.4 3.4-3.2 19.6-3.4 192.8-3.4 180.6 0 189.2 0.2 192.2 3.6 4.2 4.6 4.4 13.2 0.2 17.2-2.8 2.8-23 3.2-192.8 3.2s-190-0.4-192.8-3.2zM180 157.4c-3.6-1.8-5.2-4.4-5.6-9-1.4-13.4-18.2-12.4 226.8-12.4h222.6l3 4.4c4.4 6.2 4 9-1.8 14.6l-4.8 5h-217.6c-170.8 0-218.6-0.6-222.6-2.6zM177.2 60.8c-4.4-4.2-4-13.4 0.4-17.4 3.4-3.2 17.6-3.4 163.6-3.4 125 0 160.8 0.6 163.4 2.4 5.6 4.4 6.4 12.6 1.6 17.4-4.2 4.2-4.6 4.2-165 4.2-143.6 0-161.2-0.4-164-3.2zM818.6 431.6l-48.6-48.4-14.6 14.4c-9.2 9.2-16 14.4-19 14.4-5.4 0-12.4-6.6-12.4-12 0-7.6 39.8-46 47.8-46 1.6 0 27.6 24.6 57.6 54.4 39.4 39.4 54.6 55.8 54.6 59 0 5.8-6.6 12.6-12.4 12.6-3 0-19-14.6-53-48.4z" />
<glyph unicode="&#xe902;" glyph-name="job-description" d="M174 958.2c-16.4-5-30.2-18.8-35-35-4.6-15-4.6-935.4 0-950.4 3.6-12 14.4-25.4 25.8-31.4l8.2-4.4h678l8.2 4.4c11.4 6 22.2 19.4 25.8 31.4 2.6 8.6 3 60.6 3 391.2 0 341.8-0.4 382.4-3.2 392.2-3 10.4-6.8 14.6-94.4 102.4-50.8 51-95 93.6-99.4 96l-8 4.4-252 0.4c-138.6 0.2-254.2-0.4-257-1.2zM666 866v-60h-12c-10.2 0-13-0.8-17-5l-5-4.8v-218.4l10.2-10.2 38.4 0.8c37.6 0.6 38.6 0.8 49 6.2 14 7.4 25.6 19.4 32.2 33.2 4.4 9.4 5.2 13.8 5.2 28.2-0.2 19.2-4 30.2-15 42.8l-6.6 7.4 4.2 5.4c9.2 11.6 14.8 22.8 17 34.4l2.4 12h85l-0.4-379.2-0.6-379.2-11.2-9.6h-659.6l-11.2 9.6v936.8l11.2 9.6h483.8v-60zM765 836l64-64h-117.4l-11.6 11.6v58.2c0 32 0.2 58.2 0.6 58.2 0.2 0 29.2-28.8 64.4-64zM671 767.8c2.2-6.6 15-19.6 23.8-24.2 5.4-2.8 13.4-4.6 23.8-5.2 10.8-0.6 15.4-1.6 15.4-3.6 0-5-4.4-13.8-9.6-19.6-8.4-9-16-11.2-38.4-11.2h-20v34c0 31.6 1.6 40.8 5 29.8zM712.6 667.2c7.8-3.2 16.4-12.2 19.2-19.8 5.6-14.6-1-32.4-14.6-40.4-7.6-4.4-10.8-5-29.8-5h-21.4v68h20c12.6 0 22.6-1 26.6-2.8zM279.2 801.8c-6.4-5.2-7.2-16.8-1.4-24 3.6-4.4 5.6-4.8 25-5.4l21.2-0.8v-159.8l-5-4.8c-10.8-10.8-29-2.6-29 13 0 6-10.6 16-17 16-3.2 0-7.6-2.4-11.2-5.8-6.8-6.8-7.6-14.8-2.8-28.2 15.4-44 75.8-45.8 95.2-3 3.4 7.4 3.8 15 3.8 90.6v82.4h19.8c17.8 0 20.6 0.4 25 4.6 8 6.8 8.6 15.4 2.2 23l-5.4 6.4h-57.6c-55.2 0-57.6-0.2-62.8-4.2zM493 804c-11-3.4-27.8-15-34.2-23.4-3.6-4.6-8.4-13.6-10.8-19.8-4-11-4.2-14.2-3.6-77.6l0.6-66.2 6.8-12.6c7.6-14 17.8-23.8 32-30.8 13.4-6.6 43-6.6 56.4 0 14.2 7 24.4 16.8 32 30.8l6.8 12.6v138l-5.2 11c-7.2 15.4-15.6 24.2-30.2 32-10.8 5.8-14.8 6.8-28.6 7.4-8.8 0.2-18.6-0.4-22-1.4zM529.2 767c5.6-3.2 9.8-7.8 12.6-13.6 4-8.2 4.2-11.8 4.2-66.6 0-56.2-0.2-58.2-4.4-66.8-5.8-11.2-16.8-18-29.6-18s-23.8 6.8-29.4 18c-4.4 8.6-4.6 10.6-4.6 67.2 0 57 0 58.4 4.6 67 9 17 29.6 22.8 46.6 12.8zM254.6 512.8c-10-3.6-22.4-15-27.6-25.8-5.4-11-5.4-33-0.2-43.8 15.8-31.8 57.2-38.8 82-14 38.6 38.4-2.4 101.8-54.2 83.6zM284.8 476.8c10.8-11 2.8-28.8-13-28.8-5.2 0-15.8 10.6-15.8 15.8 0 15.8 17.8 23.8 28.8 13zM381 477c-6.2-6-6.6-16.6-1.2-23.2l3.8-4.8 201.8-0.6c143.4-0.4 203.2 0.2 207 1.8 10.4 4.2 12.2 19.4 3.2 27.8-4.4 4-6.2 4-207 4h-202.8l-4.8-5zM261 378.2c-20.8-5.4-36.2-23.4-38.4-45.2-4.2-39.6 38.2-68 73.6-49.4 37.2 19.4 36.6 71.4-1 90.8-8.6 4.4-25 6.2-34.2 3.8zM284.2 340.2c7.4-7.6 7.8-16.4 0.8-23.2-10.2-10.4-29-3.2-29 11 0 8 9.4 18 17 18 3.2 0 7.6-2.4 11.2-5.8zM385 343.6c-10.2-5.8-12.2-18.6-4-26.6l4.8-5h406.4l4.8 5c7 6.8 6.6 15.6-0.8 23.2l-5.8 5.8h-200.8c-147.2-0.2-201.6-0.8-204.6-2.4zM262.2 241.8c-14.2-2.8-27.4-13-34.8-26.8-3.4-6.2-4.4-11.6-4.4-23 0-17.6 4.4-27.4 16.2-38 10.4-9 19.8-12.4 33.8-12.4s23.4 3.4 33.8 12.4c11.8 10.6 16.2 20.4 16.2 38s-4.4 27.4-16.2 38c-12.6 11-27.8 15-44.6 11.8zM286 202.4c12-15.2-6.4-34.4-22.8-23.6-10.2 6.6-9 21.8 2.2 27.4 8.2 4 15.6 2.8 20.6-3.8zM388.6 208.6c-6-1.2-12.6-9.8-12.6-16.8 0-3 2.2-8.2 4.8-11.2l4.8-5.6h406.8l4.8 5.6c6.2 7.2 6.2 15.6 0 22.8l-4.8 5.6-199.8 0.2c-109.8 0.2-201.6-0.2-204-0.6zM250.4 100.8c-37.8-18.8-37.4-71.2 0.6-91.4 11.2-6 32.8-6 44 0 29.2 15.6 37.8 51.4 18.4 77-14.4 19-41.4 25.2-63 14.4zM285 67c7-6.8 6.6-15.6-0.8-23.2-3.6-3.4-8-5.8-11.2-5.8-7.6 0-17 10-17 18 0 8.8 7.8 16 17 16 5 0 8.8-1.6 12-5zM381 67c-5.4-5.4-6.6-15.8-2.4-21.2 5.8-7.6 8.4-7.8 117.2-7.8h105.8l6.2 5.2c8 6.6 8.6 16.6 1.2 23.8l-4.8 5h-218.4l-4.8-5z" />
<glyph unicode="&#xe903;" glyph-name="copywriting" d="M64 925.4c-9.8-3.2-26.6-20.4-29.6-30.6-3.4-11.6-3.6-881.6 0-893 3.2-11 14.6-23.6 26.4-29l10.2-4.8h313c310.6 0 313 0.2 322 4.2 12 5.4 19.6 12.8 25.2 24.8 4.6 9.6 4.8 11.8 4.8 57.6v47.6l-5 4.8c-6.4 6.6-15.6 6.6-22 0l-5-4.8v-92.4l-5-4.8-4.8-5h-620.4l-4.8 5-5 4.8v876.4l5 4.8 4.8 5h502.2v-43.2c0-51.4 1-55.8 15-69.8s18.4-15 69.8-15h43.2v-326.2l5-4.8c6.4-6.6 15.6-6.6 22 0l5 4.8v349.2l-68.6 68.4-68.4 68.6-264-0.2c-186.4-0.2-266-0.8-271-2.4zM645 836l36-36h-31.6c-30.8 0-31.6 0.2-36.4 5s-5 5.6-5 36c0 17 0.2 31 0.6 31 0.2 0 16.6-16.2 36.4-36zM245 795c-3.2-3-5-7.2-5-11s1.8-8 5-11l4.8-5h252.4l4.8 5c3.2 3 5 7.2 5 11s-1.8 8-5 11l-4.8 5h-252.4l-4.8-5zM133 699c-3.2-3-5-7.2-5-11s1.8-8 5-11l4.8-5h364.4l4.8 5c6.6 6.4 6.6 15.6 0 22l-4.8 5h-364.4l-4.8-5zM549 699c-3.2-3-5-7.2-5-11s1.8-8 5-11c4.8-5 5.2-5 43-5s38.2 0 43 5c3.2 3 5 7.2 5 11s-1.8 8-5 11c-4.8 5-5.2 5-43 5s-38.2 0-43-5zM133 603c-3.2-3-5-7.2-5-11s1.8-8 5-11l4.8-5h492.4l4.8 5c6.6 6.4 6.6 15.6 0 22l-4.8 5h-492.4l-4.8-5zM902.8 542.2c-20.2-5.2-21.2-6.2-191.4-176l-165.4-165.2-17-59.4c-9.4-32.8-17-61.4-17-63.6 0-5 9.2-14 14.4-14 2 0 30.4 7.6 63.2 17l59.4 17 165.2 165.4c187.8 188.2 176.8 175.2 176.8 207.6 0 15.6-0.8 19.6-5.6 30.2-11.4 24.6-34.8 40.4-62 41.8-7.8 0.4-17.2 0.2-20.6-0.8zM938.2 507.4c11.8-6.4 20-18.4 21.4-31.2 1.2-13.8-3.4-25.2-14.6-36.2l-9-9-28.4 28.6-28.4 28.4 7.8 8.2c15.4 15.8 34.4 20 51.2 11.2zM865 456l8-8-273-273-8.4 8.6-8.6 8.4 136 136c74.8 74.8 136.4 136 137 136s4.8-3.6 9-8zM905 416l8-8-273-273-8.4 8.6-8.6 8.4 136 136c74.8 74.8 136.4 136 137 136s4.8-3.6 9-8zM606.4 119.8c-2-2-52.6-16.2-53.8-15.2-0.8 1 12.8 50.8 14.8 54.2 0.6 0.8 10-7.2 20.8-18s19-20.2 18.2-21zM136.6 509.6c-2.4-1.2-5.4-4.6-6.8-7.8-3-7.4 0.8-17.4 7.6-20 6.6-2.4 75.8-2.4 80.6 0.2 5 2.6 8.2 13 6 18.8-3.8 10.2-8 11.2-47 11-20.8 0-37.8-1-40.4-2.2zM264.6 509.6c-6.6-3.2-9.6-12.2-6.6-19.6 1.4-3.4 4.2-7 6.2-8 4.8-2.6 364.8-2.6 369.6 0 2 1 4.8 4.6 6.2 8 3 7 0 16.8-6.2 20-5.2 2.8-363.4 2.4-369.2-0.4zM133 411c-3.2-3-5-7.2-5-11s1.8-8 5-11l4.8-5h492.4l4.8 5c6.6 6.4 6.6 15.6 0 22l-4.8 5h-492.4l-4.8-5zM133 315c-3.2-3-5-7.2-5-11s1.8-8 5-11l4.8-5h300.4l4.8 5c6.6 6.4 6.6 15.6 0 22l-4.8 5h-300.4l-4.8-5zM485 315c-3.2-3-5-7.2-5-11s1.8-8 5-11c4.8-5 5.2-5 43-5s38.2 0 43 5c3.2 3 5 7.2 5 11s-1.8 8-5 11c-4.8 5-5.2 5-43 5s-38.2 0-43-5zM133 219c-3.2-3-5-7.2-5-11s1.8-8 5-11l4.8-5h332.4l4.8 5c6.6 6.4 6.6 15.6 0 22l-4.8 5h-332.4l-4.8-5zM133 123c-3.2-3-5-7.2-5-11s1.8-8 5-11c4.8-5 5.2-5 43-5s38.2 0 43 5c3.2 3 5 7.2 5 11s-1.8 8-5 11c-4.8 5-5.2 5-43 5s-38.2 0-43-5zM261 123c-3.2-3-5-7.2-5-11s1.8-8 5-11l4.8-5h172.4l4.8 5c3.2 3 5 7.2 5 11s-1.8 8-5 11l-4.8 5h-172.4l-4.8-5z" />
<glyph unicode="&#xe904;" glyph-name="youtube" d="M822.468 89.372h-620.936c-111.124 0-201.532 90.406-201.532 201.532v314.192c0 111.126 90.408 201.532 201.532 201.532h620.936c111.126 0 201.532-90.406 201.532-201.532v-314.194c0-111.124-90.406-201.53-201.532-201.53zM201.532 746.628c-78.040 0-141.532-63.49-141.532-141.532v-314.194c0-78.042 63.492-141.532 141.532-141.532h620.936c78.042 0 141.532 63.492 141.532 141.532v314.194c0 78.042-63.49 141.532-141.532 141.532zM412.594 255.86c-5.048 0-10.102 1.272-14.664 3.828-9.47 5.306-15.336 15.316-15.336 26.172v328.16c0 10.92 5.934 20.978 15.492 26.258 9.558 5.282 21.232 4.952 30.476-0.862l264.436-166.26c8.786-5.524 14.092-15.198 14.032-25.576-0.062-10.378-5.484-19.988-14.336-25.408l-264.434-161.9c-4.802-2.936-10.23-4.412-15.666-4.412zM442.594 559.722v-220.318l177.534 108.694z" />
<glyph unicode="&#xe905;" glyph-name="call" d="M152 238h90v-60h60v420h-60v-60h-60v30c0 183.066 148.038 332 330 332s330-148.934 330-332v-30h-60v60h-60v-420h60v60h60v-92c0-49.626-40.374-90-90-90h-155.16c-12.384 34.918-45.73 60-84.84 60-49.626 0-90-40.374-90-90s40.374-90 90-90c39.11 0 72.456 25.082 84.84 60h155.16c82.71 0 150 67.29 150 150v97.16c34.918 12.384 60 45.73 60 84.84v120c0 39.11-25.082 72.456-60 84.84v35.16c0 216.15-174.954 392-390 392s-390-175.85-390-392v-35.162c-34.918-12.384-60-45.73-60-84.84v-120c0-49.624 40.374-89.998 90-89.998zM512-4c-16.542 0-30 13.458-30 30s13.458 30 30 30 30-13.458 30-30-13.458-30-30-30zM902 448v-120c0-16.542-13.458-30-30-30h-90v180h90c16.542 0 30-13.458 30-30zM122 448c0 16.542 13.458 30 30 30h90v-180h-90c-16.542 0-30 13.458-30 30z" />
<glyph unicode="&#xe906;" glyph-name="whatsapp" d="M768.278 343.526l-54.268 54.268c-14.806 14.806-35.27 22.226-56.106 20.352-20.852-1.87-39.654-12.808-51.588-30.006l-18.904-27.242c-25.708 4.58-75.442 17.542-110.206 52.308-34.778 34.78-47.738 84.536-52.31 110.206l27.248 18.906c17.2 11.936 28.138 30.742 30.004 51.594 1.87 20.852-5.55 41.3-20.352 56.1l-54.268 54.268c-21.808 21.806-54.678 27.010-81.798 12.958-47.552-24.636-78.788-70.816-87.964-130.032-14.946-96.478 29.656-210.298 116.398-297.040 75.652-75.652 171.894-119.248 259.268-119.248 12.812 0 25.436 0.938 37.77 2.848 59.22 9.172 105.4 40.412 130.034 87.962 0 0 0 0 0.002 0 14.050 27.124 8.844 59.994-12.96 81.798zM726.020 290.336c-19.578-37.788-56.668-50.828-84.336-55.114-76.070-11.78-171.67 27.042-243.548 98.918-71.874 71.876-110.702 167.472-98.918 243.546 4.284 27.668 17.328 64.756 55.116 84.336 1.024 0.528 2.156 0.786 3.304 0.786 2.112 0 4.28-0.87 5.912-2.5l54.27-54.27c2.254-2.258 2.542-4.822 2.384-6.576-0.158-1.756-0.894-4.228-3.518-6.048l-42.866-29.744c-8.964-6.22-14.014-16.688-13.3-27.576 0.27-4.112 7.342-101.488 72.71-166.856 65.368-65.37 162.744-72.446 166.856-72.712 10.88-0.7 21.358 4.336 27.578 13.302l29.744 42.866c1.818 2.62 4.292 3.358 6.046 3.516 1.758 0.162 4.32-0.13 6.58-2.386l54.268-54.266c2.522-2.52 3.226-6.312 1.718-9.222zM874.032 810.032c-96.708 96.71-225.284 149.968-362.052 149.968s-265.344-53.258-362.052-149.966c-82.194-82.194-134.374-190.976-146.934-306.308-11.874-109.030 11.822-220.008 66.798-314.082l-53.356-199.124c-2.876-10.73 0.192-22.18 8.050-30.036 7.854-7.854 19.308-10.922 30.032-8.048l199.124 53.354c78.208-45.704 168.106-69.79 258.848-69.79 18.406 0 36.848 0.99 55.234 2.994 115.332 12.558 224.116 64.74 306.308 146.936 96.71 96.706 149.968 225.286 149.968 362.050s-53.26 265.344-149.968 362.052zM830.058 129.904c-148.662-148.662-377-175.078-555.274-64.248-4.976 3.090-10.67 4.686-16.42 4.686-2.692 0-5.396-0.35-8.046-1.060l-159.874-42.838 42.84 159.872c2.224 8.306 0.91 17.164-3.628 24.464-110.834 178.282-84.414 406.62 64.244 555.28 175.392 175.388 460.768 175.388 636.158 0 175.388-175.388 175.388-460.768 0-636.156z" />
<glyph unicode="&#xe907;" glyph-name="time" d="M914.742 764.126h31.639c11.037 0 19.987 8.95 19.987 19.987s-8.95 19.987-19.987 19.987h-75.95c-11.037 0-19.987-8.95-19.987-19.987v-75.95c0-11.037 8.95-19.987 19.987-19.987s19.987 8.95 19.987 19.987v21.992c60.644-81.189 93.609-179.698 93.609-282.155 0-260.277-211.749-472.026-472.026-472.026s-472.026 211.749-472.026 472.026 211.749 472.026 472.026 472.026c19.249 0 38.623-1.169 57.586-3.474 10.943-1.323 20.922 6.47 22.253 17.429 1.333 10.957-6.47 20.922-17.429 22.253-20.559 2.498-41.555 3.766-62.411 3.766-136.76 0-265.336-53.257-362.038-149.962-96.705-96.703-149.962-225.278-149.962-362.038s53.257-265.336 149.962-362.038c96.703-96.705 225.278-149.962 362.038-149.962s265.336 53.257 362.038 149.962c96.705 96.703 149.962 225.278 149.962 362.038 0 115.406-38.555 226.198-109.258 316.127zM216.802 658.171c-9.328 5.904-21.674 3.126-27.58-6.196-45.628-72.065-65.827-158.732-56.875-244.038 9.084-86.571 48.048-168.21 109.716-229.879 74.421-74.421 172.179-111.633 269.939-111.633s195.516 37.21 269.939 111.633c148.844 148.844 148.844 391.033 0 539.876-61.574 61.572-143.078 100.522-229.505 109.676-85.148 9.024-171.721-11.017-243.756-56.421-9.34-5.886-12.136-18.228-6.252-27.566 5.886-9.34 18.228-12.136 27.566-6.252 135.787 85.584 310.007 65.971 423.68-47.703 133.259-133.259 133.259-350.084 0-483.343-133.257-133.261-350.086-133.261-483.343 0-112.102 112.102-132.009 290.531-47.333 424.264 5.902 9.328 3.13 21.676-6.196 27.582zM771.831 427.688h24.648c11.037 0 19.987 8.95 19.987 19.987s-8.95 19.987-19.987 19.987h-24.648c-11.037 0-19.987-8.95-19.987-19.987s8.948-19.987 19.987-19.987zM207.534 448.323c0-11.037 8.95-19.987 19.987-19.987h24.648c11.037 0 19.987 8.95 19.987 19.987s-8.95 19.987-19.987 19.987h-24.648c-11.037 0-19.987-8.948-19.987-19.987zM532.311 707.83v24.648c0 11.037-8.95 19.987-19.987 19.987s-19.987-8.95-19.987-19.987v-24.648c0-11.037 8.95-19.987 19.987-19.987s19.987 8.95 19.987 19.987zM491.689 188.168v-24.648c0-11.037 8.95-19.987 19.987-19.987s19.987 8.95 19.987 19.987v24.648c0 11.037-8.95 19.987-19.987 19.987s-19.987-8.948-19.987-19.987zM411.818 576.449c-7.807 7.803-20.459 7.803-28.267 0-7.805-7.805-7.805-20.461 0-28.267l67.738-67.738c-5.191-9.674-8.143-20.72-8.143-32.445 0-37.967 30.888-68.855 68.855-68.855s68.855 30.888 68.855 68.855c0 11.724-2.954 22.771-8.143 32.445l136.676 136.676c7.805 7.805 7.805 20.461 0 28.267-7.807 7.803-20.459 7.803-28.267 0l-136.676-136.676c-9.674 5.191-20.72 8.143-32.445 8.143s-22.771-2.954-32.445-8.143l-67.738 67.738zM540.881 447.999c0-15.926-12.955-28.881-28.881-28.881s-28.881 12.955-28.881 28.881 12.955 28.881 28.881 28.881 28.881-12.955 28.881-28.881zM270.319 689.68c3.738 3.718 5.874 8.874 5.874 14.131s-2.137 10.393-5.874 14.131c-3.718 3.716-8.856 5.856-14.131 5.856-5.257 0-10.413-2.139-14.131-5.856-3.716-3.718-5.856-8.874-5.856-14.131 0-5.277 2.139-10.413 5.856-14.131 3.718-3.716 8.874-5.856 14.131-5.856 5.275 0 10.413 2.141 14.131 5.856zM650.449 900.282c5.279 0 10.435 2.121 14.151 5.856 3.718 3.718 5.858 8.856 5.858 14.131 0 5.257-2.139 10.413-5.858 14.131-3.716 3.716-8.872 5.856-14.151 5.856-5.257 0-10.413-2.139-14.129-5.856-3.718-3.718-5.858-8.874-5.858-14.131 0-5.277 2.139-10.413 5.858-14.131 3.716-3.736 8.872-5.856 14.129-5.856z" />
<glyph unicode="&#xe908;" glyph-name="envelope" d="M938.666 831.999h-853.332c-47.064 0-85.334-38.27-85.334-85.334v-597.334c0-47.062 38.27-85.332 85.334-85.332h853.334c47.062 0 85.332 38.27 85.332 85.334v597.332c0 47.064-38.27 85.334-85.334 85.334zM85.334 789.333h853.334c3.144 0 5.914-1.146 8.864-1.794-73.878-67.614-318.846-291.718-404.572-368.956-6.708-6.042-17.52-13.25-30.958-13.25s-24.25 7.208-30.98 13.27c-85.718 77.226-330.7 301.342-404.566 368.932 2.956 0.648 5.732 1.798 8.878 1.798zM42.666 149.333v597.332c0 4.18 1.26 7.972 2.388 11.792 56.544-51.752 227.472-208.12 338.304-308.906-110.472-94.894-281.444-256.99-338.438-311.338-1.006 3.628-2.254 7.176-2.254 11.12zM938.666 106.665h-853.332c-3.408 0-6.438 1.188-9.62 1.948 58.894 56.144 230.954 219.172 339.484 312.018 14.148-12.834 27.072-24.536 37.26-33.716 17.584-15.876 38.166-24.25 59.542-24.25s41.958 8.376 59.52 24.23c10.192 9.184 23.126 20.896 37.282 33.736 108.536-92.836 280.572-255.852 339.484-312.018-3.182-0.76-6.208-1.948-9.62-1.948zM981.334 149.333c0-3.942-1.248-7.492-2.252-11.12-57.016 54.376-227.968 216.454-338.438 311.336 110.836 100.786 281.738 257.14 338.302 308.912 1.128-3.82 2.388-7.614 2.388-11.794v-597.334z" />
<glyph unicode="&#xe909;" glyph-name="phone" d="M208.66 279.313c101-120.733 222.581-215.791 361.349-283.053 52.834-25.038 123.491-54.743 202.211-59.836 4.88-0.212 9.548-0.424 14.429-0.424 52.834 0 95.271 18.248 129.857 55.804 0.212 0.212 0.637 0.637 0.849 1.061 12.307 14.853 26.311 28.22 40.952 42.437 9.973 9.548 20.157 19.521 29.918 29.706 45.195 47.105 45.195 106.941-0.424 152.56l-127.523 127.523c-21.643 22.492-47.529 34.374-74.689 34.374s-53.258-11.882-75.538-34.162l-75.962-75.962c-7.002 4.031-14.216 7.639-21.006 11.034-8.487 4.244-16.338 8.275-23.34 12.731-69.172 43.922-131.978 101.212-192.027 174.84-30.342 38.405-50.712 70.657-64.928 103.546 19.945 18.036 38.617 36.92 56.653 55.38 6.366 6.578 12.943 13.155 19.521 19.733 22.916 22.916 35.223 49.439 35.223 76.386s-12.094 53.47-35.223 76.386l-63.231 63.231c-7.426 7.426-14.429 14.641-21.643 22.067-14.004 14.429-28.645 29.281-43.073 42.649-21.855 21.431-47.529 32.676-74.689 32.676-26.947 0-52.834-11.246-75.538-32.889l-79.357-79.357c-28.857-28.857-45.195-63.867-48.59-104.395-4.031-50.712 5.305-104.607 29.494-169.747 37.132-100.787 93.149-194.361 176.325-294.299zM54.614 738.903c2.546 28.22 13.368 51.773 33.737 72.143l78.932 78.932c12.307 11.882 25.886 18.036 39.042 18.036 12.943 0 26.099-6.153 38.193-18.46 14.216-13.155 27.584-26.947 42.012-41.588 7.214-7.426 14.641-14.853 22.067-22.492l63.231-63.231c13.155-13.155 19.945-26.523 19.945-39.678s-6.79-26.523-19.945-39.678c-6.578-6.578-13.155-13.368-19.733-19.945-19.733-19.945-38.193-38.83-58.563-56.865-0.424-0.424-0.637-0.637-1.061-1.061-17.611-17.611-14.853-34.374-10.609-47.105 0.212-0.637 0.424-1.061 0.637-1.697 16.338-39.254 39.042-76.598 74.477-121.157 63.655-78.508 130.705-139.405 204.545-186.298 9.124-5.941 18.884-10.609 28.008-15.277 8.487-4.244 16.338-8.275 23.34-12.731 0.849-0.424 1.485-0.849 2.334-1.273 7.002-3.607 13.792-5.305 20.582-5.305 16.975 0 28.008 10.821 31.615 14.429l79.357 79.357c12.307 12.307 25.674 18.884 38.83 18.884 16.126 0 29.281-9.973 37.557-18.884l127.947-127.735c25.462-25.462 25.25-53.046-0.637-79.993-8.912-9.548-18.248-18.672-28.22-28.22-14.853-14.429-30.342-29.281-44.346-46.044-24.401-26.311-53.47-38.617-91.027-38.617-3.607 0-7.426 0.212-11.034 0.424-69.596 4.456-134.312 31.615-182.903 54.743-131.978 63.867-247.831 154.47-343.95 269.474-79.145 95.271-132.403 183.964-167.625 279.022-21.855 58.351-30.13 105.243-26.735 147.892z" />
<glyph unicode="&#xe90a;" glyph-name="home" d="M1016.224 482.101l-188.936 161.346c0.221 1.104 0.441 2.207 0.662 3.532v211.008c-0.221 12.581-10.153 22.734-22.734 23.176h-105.504c-12.14 0-22.072-10.815-22.072-23.176v-87.405l-151.193 128.9c-8.167 7.063-20.306 7.063-28.694 0l-489.777-417.16c-9.491-7.725-10.595-21.631-2.869-31.121s21.631-10.595 31.121-2.869c0.221 0.221 0.221 0.221 0.441 0.441l475.43 404.8 475.651-405.021c9.27-7.946 23.176-6.842 31.121 2.428 7.725 9.27 6.622 23.176-2.649 31.121zM783.586 680.749l-61.801 52.090v103.959h61.801v-156.049zM918.887 437.516l-392.439 335.273c-8.167 7.063-20.306 7.063-28.694 0l-392.439-335.273c-9.27-7.946-10.374-21.851-2.428-31.121 7.725-9.27 21.41-10.374 30.459-2.649l0.221 0.221 27.59 23.838v-413.849c0.221-12.36 10.374-22.513 22.734-22.734h656.199c12.36 0.221 22.513 10.153 22.734 22.734v413.849l27.59-23.838c3.973-3.311 8.829-5.297 14.126-5.297 6.401 0 12.581 2.869 16.775 7.725 8.167 9.491 6.842 23.396-2.428 31.121zM600.388 35.585h-176.576v238.377h176.576v-238.377zM644.532 35.585v259.787c0 12.14-9.050 22.734-21.189 22.734h-222.485c-12.14 0-21.189-10.595-21.189-22.734v-259.787h-174.369v429.962l306.8 261.332 306.8-261.332v-429.962h-174.369z" />
<glyph unicode="&#xe90b;" glyph-name="linkedin" d="M719.59 79.36c-8.96 0-16.256 7.27-16.256 16.23v246.682c0 89.19-45.773 89.19-63.027 89.19-48.077 0-72.422-30.003-72.422-89.19v-246.707c0-8.96-7.27-16.23-16.23-16.23h-139.494c-8.96 0-16.23 7.27-16.23 16.23v469.939c0 8.96 7.27 16.23 16.23 16.23h139.52c8.96 0 16.23-7.27 16.23-16.23v-17.51l8.397 6.938c33.024 27.315 72.422 41.165 117.094 41.165 55.219 0 101.709-17.638 134.426-51.046 34.56-35.277 52.813-87.808 52.813-151.885v-297.6c0-8.96-7.296-16.23-16.256-16.23h-144.794zM640.333 463.974c35.686 0 95.539-15.821 95.539-121.702v-230.451h112.256v281.344c0 108.314-56.397 170.419-154.726 170.419-87.808 0-125.85-66.304-127.437-69.12-2.867-5.197-8.294-8.422-14.208-8.422-1.331 0-2.688 0.205-4.070 0.538-7.219 1.818-12.262 8.243-12.262 15.616v47.027h-107.008v-437.427h107.008v230.477c0 76.211 39.219 121.702 104.909 121.702v0zM173.568 79.36c-8.96 0-16.256 7.27-16.256 16.23v469.914c0 8.96 7.296 16.23 16.256 16.23h145.536c8.96 0 16.23-7.27 16.23-16.23v-469.914c0-8.96-7.27-16.23-16.23-16.23h-145.536zM189.824 111.821h113.024v437.427h-113.024v-437.427zM245.683 610.842c-56.422 0-102.323 46.157-102.323 102.886 0 56.755 45.901 102.912 102.323 102.912 56.346 0 102.221-46.182 102.221-102.938 0-56.704-45.875-102.861-102.221-102.861v0zM245.683 784.23c-38.502 0-69.811-31.616-69.811-70.502 0-38.861 31.309-70.426 69.811-70.426 38.477 0 69.76 31.565 69.76 70.426-0.026 38.861-31.283 70.502-69.76 70.502v0z" />
<glyph unicode="&#xe90c;" glyph-name="twitter" d="M1024 754.070c-64.414-2.969-63.008-2.727-70.289-3.336l38.148 108.945s-119.078-43.805-149.266-51.641c-79.281 71.258-197.125 74.406-281.375 22.625-68.992-42.414-106.023-115.25-93.672-200.383-134.273 18.633-247.406 82.281-336.727 189.578l-28.25 33.93-21.109-38.766c-26.68-48.984-35.539-104.992-24.953-157.703 4.344-21.625 11.727-42.25 21.953-61.563l-24.234 9.391-2.875-40.492c-2.914-41.133 10.781-89.148 36.641-128.43 7.281-11.063 16.656-23.211 28.539-35.195l-12.523 1.922 15.281-46.398c20.086-60.961 61.805-108.125 115.945-134.344-54.070-22.945-97.75-37.586-169.547-61.203l-65.688-21.594 60.672-33.172c23.133-12.648 104.875-54.891 185.641-67.563 179.531-28.156 381.664-5.227 517.742 117.328 114.617 103.227 152.227 250.063 144.414 402.867-1.18 23.133 5.156 45.211 17.844 62.156 25.414 33.93 97.531 132.813 97.688 133.039zM878.336 656.969c-21.070-28.133-31.625-64.063-29.734-101.156 7.883-154.133-34.055-273.664-124.656-355.258-105.836-95.32-276.547-132.734-468.344-102.648-34.734 5.445-70.633 17.641-100.344 29.82 60.195 20.711 106.68 39.172 181.75 74.703l104.797 49.602-115.703 7.406c-55.422 3.547-101.57 30.406-129.938 74.016 15.063 0.875 29.586 3.313 44.047 7.344l110.352 30.734-111.273 27.25c-54.070 13.242-84.891 45.594-101.227 70.406-10.727 16.305-17.734 33.008-21.938 48.406 11.156-2.992 24.164-5.125 45.141-7.203l102.992-10.188-81.602 63.656c-58.797 45.859-82.359 114.758-65.086 180.992 183.5-190.328 398.953-176.023 420.641-181.055-4.773 46.367-4.898 46.477-6.148 50.891-27.773 98.18 33.094 148.031 60.547 164.906 57.344 35.242 148.367 40.555 211.414-17.508 13.617-12.531 32.031-17.461 49.266-13.18 15.469 3.844 28.164 7.914 40.594 12.344l-25.875-73.891 33.031-0.023c-6.234-8.359-13.711-18.367-22.703-30.367z" />
<glyph unicode="&#xe90d;" glyph-name="insta" d="M746.811 959.999h-469.624c-152.843 0-277.187-124.344-277.187-277.187v-469.632c0-152.836 124.344-277.179 277.187-277.179h469.632c152.836 0 277.179 124.344 277.179 277.179v469.632c0 152.843-124.344 277.187-277.187 277.187zM963.967 213.18c0-119.734-97.414-217.148-217.156-217.148h-469.624c-119.742 0-217.156 97.414-217.156 217.148v469.632c0 119.742 97.414 217.156 217.156 217.156h469.632c119.734 0 217.148-97.414 217.148-217.156zM511.999 727.992c-154.39 0-279.992-125.601-279.992-279.992s125.601-279.992 279.992-279.992 279.992 125.601 279.992 279.992-125.601 279.992-279.992 279.992zM511.999 228.039c-121.281 0-219.961 98.672-219.961 219.961 0 121.281 98.68 219.961 219.961 219.961 121.289 0 219.961-98.68 219.961-219.961 0-121.289-98.672-219.961-219.961-219.961zM798.686 827.429c-45.625 0-82.734-37.117-82.734-82.734 0-45.625 37.109-82.742 82.734-82.742s82.742 37.117 82.742 82.742-37.117 82.734-82.742 82.734zM798.686 721.992c-12.516 0-22.703 10.187-22.703 22.703 0 12.523 10.187 22.703 22.703 22.703 12.523 0 22.711-10.18 22.711-22.703 0-12.516-10.187-22.703-22.711-22.703z" />
<glyph unicode="&#xe90e;" glyph-name="facebook" d="M617.28 919.040c-66.975 0-124.83-20.417-165.44-60.76s-62.72-99.472-62.72-172.040v-94.88h-122.88c-11.31-0.001-20.479-9.17-20.48-20.48v0-163.84c0.001-11.31 9.17-20.479 20.48-20.48h122.88v-389.12c0.001-11.31 9.17-20.479 20.48-20.48h163.84c11.31 0.001 20.479 9.17 20.48 20.48v0 389.12h143.36c10.408 0.001 19.003 7.765 20.309 17.817l0.011 0.103 20.48 163.84c0.102 0.768 0.16 1.656 0.16 2.558 0 11.311-9.169 20.481-20.48 20.482h-163.84v81.92c0 22.869 18.091 40.96 40.96 40.96h122.88c11.31 0.001 20.479 9.17 20.48 20.48v0 156.76c-0.013 10.355-7.71 18.909-17.694 20.268l-0.106 0.012c-18.098 2.401-83.429 7.28-143.16 7.28zM617.28 878.080c49.927 0 98.191-3.995 120-6.040v-116.84h-102.4c-45.001 0-81.92-36.919-81.92-81.92v-102.4c0.001-11.31 9.17-20.479 20.48-20.48h161.12l-15.36-122.88h-145.76c-11.31-0.001-20.479-9.17-20.48-20.48v0-389.12h-122.88v389.12c-0.001 11.31-9.17 20.479-20.48 20.48h-122.88v122.88h122.88c11.31 0.001 20.479 9.17 20.48 20.48v0 115.36c0 64.402 18.848 111.417 50.64 143s77.767 48.84 136.56 48.84z" />
<glyph unicode="&#xe90f;" glyph-name="close" d="M568.571 447.996l443.713 443.715c15.622 15.622 15.622 40.95 0 56.57s-40.95 15.622-56.57 0l-443.715-443.715-443.713 443.715c-15.622 15.622-40.95 15.622-56.57 0s-15.622-40.95 0-56.57l443.713-443.713-443.713-443.715c-15.622-15.622-15.622-40.95 0-56.57 7.81-7.81 18.048-11.714 28.286-11.714s20.474 3.904 28.286 11.714l443.711 443.713 443.713-443.713c7.81-7.81 18.048-11.714 28.286-11.714s20.474 3.904 28.286 11.714c15.622 15.622 15.622 40.95 0 56.57l-443.713 443.713z" />
<glyph unicode="&#xe910;" glyph-name="up-arrow" d="M548.521 714.161c-19.899 19.899-53.144 19.899-73.094 0l-460.312-459.134c-20.154-20.154-20.154-52.838 0-72.941 20.154-20.154 52.889-20.154 73.043 0l423.84 422.662 423.789-422.713c20.205-20.154 52.889-20.154 73.094 0 20.154 20.154 20.154 52.838 0 72.941l-460.359 459.185z" />
<glyph unicode="&#xe911;" glyph-name="down-arrow" d="M511.999 156.146c-18.352 0-36.702 7.007-50.694 20.992l-440.297 440.301c-28.009 28.009-28.009 73.42 0 101.417 27.997 27.997 73.399 27.997 101.41 0l389.58-389.603 389.583 389.589c28.009 27.997 73.406 27.997 101.401 0 28.022-27.997 28.022-73.408 0-101.417l-440.29-440.301c-13.999-13.987-32.349-20.979-50.694-20.979z" />
<glyph unicode="&#xe912;" glyph-name="sub" d="M61.438 386.554h901.124c33.939 0 61.446 27.508 61.446 61.455 0 33.939-27.499 61.446-61.446 61.446h-901.124c-33.93-0.008-61.438-27.516-61.438-61.455s27.508-61.446 61.438-61.446z" />
<glyph unicode="&#xe913;" glyph-name="add" d="M972.797 499.2h-409.594v409.603c0 28.256-22.941 51.197-51.206 51.197-28.256 0-51.197-22.941-51.197-51.197v-409.603h-409.603c-28.256 0-51.197-22.941-51.197-51.197 0-28.266 22.941-51.206 51.197-51.206h409.603v-409.594c0-28.266 22.941-51.206 51.197-51.206 28.266 0 51.206 22.941 51.206 51.206v409.594h409.594c28.266 0 51.206 22.941 51.206 51.206 0 28.256-22.941 51.197-51.206 51.197z" />
<glyph unicode="&#xe914;" glyph-name="mobile" d="M727.42 960h-430.84c-41.233 0-74.518-33.434-74.518-74.593v-874.889c0-41.121 33.285-74.518 74.518-74.518h430.84c41.159 0 74.518 33.397 74.518 74.518v874.889c0 41.159-33.36 74.593-74.518 74.593zM405.689 914.7h212.696c5.373 0 9.739-8.023 9.739-17.949s-4.366-17.986-9.739-17.986h-212.696c-5.411 0-9.702 8.060-9.702 17.986s4.291 17.949 9.702 17.949zM512.037 9.623c-26.232 0-47.577 21.344-47.577 47.614s21.344 47.539 47.577 47.539c26.158 0 47.502-21.27 47.502-47.539s-21.344-47.614-47.502-47.614zM746.115 172.652h-468.192v661.484h468.192v-661.484z" />
<glyph unicode="&#xe915;" glyph-name="bar" d="M981.333 406.219h-938.667c-23.552 0-42.667 19.115-42.667 42.667s19.115 42.667 42.667 42.667h938.667c23.552 0 42.667-19.115 42.667-42.667s-19.115-42.667-42.667-42.667zM981.333 733.333h-938.667c-23.552 0-42.667 19.115-42.667 42.667s19.115 42.667 42.667 42.667h938.667c23.552 0 42.667-19.115 42.667-42.667s-19.115-42.667-42.667-42.667zM981.333 79.115h-938.667c-23.552 0-42.667 19.115-42.667 42.667s19.115 42.667 42.667 42.667h938.667c23.552 0 42.667-19.115 42.667-42.667s-19.115-42.667-42.667-42.667z" />
<glyph unicode="&#xe916;" glyph-name="pencil" d="M975.219 911.237c-65.054 65.017-170.864 65.017-235.918 0l-668.371-668.371c-0.315-0.315-0.5-0.704-0.778-1.038-0.389-0.445-0.723-0.927-1.075-1.409-0.982-1.372-1.742-2.836-2.317-4.43-0.167-0.482-0.408-0.908-0.537-1.39-0.056-0.185-0.167-0.371-0.222-0.556l-65.517-275.229c-0.297-1.242-0.371-2.502-0.408-3.744 0-0.241-0.074-0.463-0.074-0.704 0.019-2.113 0.482-4.17 1.205-6.153 0.167-0.463 0.352-0.871 0.556-1.316 0.908-1.983 2.039-3.892 3.633-5.486 1.761-1.761 3.837-3.114 6.079-4.040s4.633-1.39 7.024-1.39c1.427 0 2.873 0.167 4.281 0.5l275.229 65.517c0.5 0.111 0.945 0.389 1.427 0.556 0.63 0.204 1.223 0.445 1.835 0.723 1.334 0.612 2.576 1.372 3.725 2.28 0.445 0.352 0.908 0.612 1.334 1.001 0.148 0.148 0.334 0.222 0.482 0.371l668.389 668.389c65.054 65.054 65.054 170.883 0.019 235.918zM949.012 885.030c46.112-46.131 50.042-118.562 12.047-169.345l-181.392 181.392c50.802 37.995 123.232 34.065 169.345-12.047zM857.269 609.801l-183.486 183.486 26.207 26.207 183.486-183.486-26.207-26.207zM91.947 27.965c-7.247 7.247-18.96 7.247-26.207 0l-14.030-14.030 47.336 198.832 81.957 9.1-10.546-94.931c-0.074-0.704 0.185-1.353 0.185-2.039 0-0.704-0.259-1.334-0.185-2.039 0.074-0.612 0.389-1.112 0.519-1.705 0.222-1.075 0.537-2.057 0.927-3.058 0.482-1.205 1.056-2.298 1.761-3.355 0.575-0.853 1.149-1.612 1.853-2.354 0.89-0.945 1.853-1.742 2.91-2.484 0.834-0.575 1.631-1.112 2.558-1.557 1.223-0.575 2.502-0.908 3.837-1.223 0.704-0.167 1.279-0.556 2.002-0.649 0.667-0.074 1.334-0.111 2.020-0.111 0 0 0.019 0 0.019 0s0.019 0 0.019 0h0.019c0 0 0.019 0 0.019 0 0.667 0 1.353 0.037 2.020 0.111l94.931 10.546-9.1-81.957-198.851-47.336 14.030 14.030c7.228 7.228 7.228 18.96 0 26.207zM324.548 129.513l414.752 414.771c7.247 7.247 7.247 18.96 0 26.207s-18.96 7.247-26.207 0l-414.752-414.771-88.462-9.823 9.823 88.462 414.79 414.752c7.247 7.247 7.247 18.96 0 26.207s-18.96 7.247-26.207 0l-414.79-414.752-58.994-6.561 513.075 513.075 183.486-183.486-513.075-513.075 6.561 58.994zM909.683 662.215l-183.486 183.486 26.226 26.226 183.486-183.486-26.226-26.226z" />
<glyph unicode="&#xe917;" glyph-name="angle-double-right" d="M486.914 448.002c0.939 12.070-2.73 24.399-11.987 33.612l-380.584 379.946c-16.806 16.763-44.021 16.763-60.827 0-16.808-16.764-16.808-43.938 0-60.744l353.413-352.814-353.413-352.816c-16.808-16.763-16.808-43.936 0-60.701 16.808-16.763 44.023-16.763 60.827 0l380.586 379.946c9.255 9.213 12.882 21.497 11.985 33.57zM991.035 481.614l-466.623 465.814c-16.808 16.763-44.023 16.763-60.829 0-16.808-16.764-16.808-43.98 0-60.701l439.451-438.725-439.452-438.684c-16.808-16.764-16.808-43.936 0-60.744 16.808-16.764 44.023-16.764 60.829 0l466.579 465.812c9.257 9.213 12.882 21.542 11.943 33.614 0.984 12.072-2.685 24.4-11.898 33.614z" />
<glyph unicode="&#xe918;" glyph-name="star" d="M229.193-43.294c-11.219 0-22.36 3.5-31.868 10.375-17.711 12.836-25.985 34.899-21.165 56.189l65.877 290.187-223.412 195.927c-16.422 14.336-22.696 37.040-15.954 57.814 6.742 20.735 25.087 35.415 46.806 37.423l295.601 26.837 116.87 273.499c8.617 20.094 28.243 33.071 50.048 33.071s41.431-12.977 50.048-33.024l116.87-273.546 295.554-26.837c21.766-1.961 40.11-16.688 46.853-37.423s0.508-43.478-15.914-57.814l-223.412-195.888 65.877-290.179c4.828-21.336-3.453-43.4-21.157-56.197-17.665-12.797-41.22-13.782-59.822-2.602l-254.897 152.324-254.897-152.41c-8.617-5.117-18.219-7.727-27.907-7.727zM511.998 182.462c9.688 0 19.282-2.602 27.907-7.719l240.561-143.879-62.173 273.89c-4.438 19.493 2.18 39.845 17.243 53.033l210.951 185.005-279.093 25.344c-20.094 1.836-37.376 14.469-45.228 32.985l-110.167 258.1-110.3-258.139c-7.766-18.391-25.048-31.024-45.095-32.86l-279.132-25.344 210.943-185.005c15.11-13.227 21.719-33.54 17.243-53.079l-62.127-273.882 240.561 143.832c8.617 5.117 18.219 7.719 27.907 7.719zM342.821 626.169s0-0.047-0.047-0.086zM681.088 626.294l0.047-0.086c0 0.047 0 0.047-0.047 0.086z" />
<glyph unicode="&#xe919;" glyph-name="angle-left" d="M331.295 447.762l444.985 444.985c15.384 15.386 15.384 40.33 0 55.716-15.388 15.381-40.33 15.381-55.716 0l-472.843-472.843c-15.381-15.386-15.381-40.33 0-55.716l472.843-472.843c15.654-15.118 40.598-14.684 55.716 0.97 14.746 15.27 14.746 39.478 0 54.746l-444.985 444.985z" />
<glyph unicode="&#xe91a;" glyph-name="angle-right" d="M798.813 480.478l-512.425 466.975c-16.815 16.73-44.086 16.73-60.901 0s-16.815-43.872 0-60.602l481.528-438.851-481.485-438.85c-16.815-16.73-16.815-43.874 0-60.602s44.086-16.729 60.9 0l512.426 466.975c8.962 8.918 12.805 20.742 12.206 32.434 0.557 11.737-3.284 23.559-12.249 32.521z" />
<glyph unicode="&#xe91b;" glyph-name="search" d="M1011.488 8.835l-291.197 291.197c56.405 69.673 90.367 158.206 90.367 254.632 0 223.486-181.844 405.33-405.33 405.33s-405.328-181.842-405.328-405.328 181.844-405.33 405.33-405.33c96.425 0 184.958 33.962 254.632 90.367l291.197-291.197c8.32-8.32 19.242-12.502 30.166-12.502s21.846 4.182 30.166 12.502c16.682 16.682 16.682 43.648-0.002 60.329zM405.33 234.669c-176.468 0-319.997 143.529-319.997 319.997s143.529 319.997 319.997 319.997 319.997-143.529 319.997-319.997-143.531-319.997-319.997-319.997z" />
<glyph unicode="&#xe91c;" glyph-name="key" d="M935.704 878.638c-52.468 52.466-122.226 81.362-196.424 81.362s-143.956-28.896-196.424-81.362c-46.734-46.736-75.32-108.714-80.49-174.518-4.75-60.412 10.38-120.73 42.726-171.368l-480.635-480.625c-23.36-23.362-23.36-61.372 0-84.734 11.316-11.314 26.364-17.55 42.368-17.55s31.048 6.234 42.368 17.55l51.632 51.634 65.474-65.478c11.316-11.314 26.364-17.55 42.368-17.55s31.048 6.234 42.366 17.552c23.36 23.362 23.358 61.372 0 84.732l-34.666 34.664 38.516 38.516 34.664-34.662c11.316-11.318 26.364-17.552 42.368-17.552s31.048 6.232 42.362 17.55c11.316 11.314 17.552 26.362 17.552 42.366s-6.234 31.052-17.55 42.368l-65.48 65.474 221.012 221.010c44.584-28.55 95.97-43.574 149.486-43.578 74.196 0.002 143.942 28.892 196.402 81.352 52.466 52.468 81.362 122.226 81.362 196.424 0.006 74.198-28.89 143.956-81.356 196.424zM912.592 508.899c-46.29-46.292-107.82-71.78-173.272-71.78-51.362 0.004-100.474 15.662-142.046 45.29-6.5 4.63-15.39 3.892-21.038-1.752l-242.098-242.096c-3.064-3.066-4.784-7.22-4.784-11.556s1.722-8.488 4.784-11.556l77.028-77.028c5.144-5.142 7.978-11.982 7.978-19.258 0-7.274-2.834-14.114-7.978-19.258-5.142-5.144-11.984-7.976-19.256-7.976-7.274 0-14.116 2.832-19.26 7.978l-46.22 46.218c-6.38 6.38-16.726 6.38-23.108 0l-61.622-61.622c-6.382-6.384-6.382-16.728 0-23.11l46.22-46.22c10.62-10.616 10.62-27.896 0-38.514-5.142-5.144-11.984-7.978-19.256-7.978-7.274 0-14.116 2.834-19.258 7.978l-77.028 77.030c-3.192 3.19-7.372 4.784-11.556 4.784-4.18 0-8.364-1.594-11.556-4.784l-63.184-63.188c-5.144-5.144-11.986-7.978-19.26-7.978s-14.116 2.834-19.258 7.978c-10.62 10.616-10.62 27.896 0 38.514l490.157 490.155c5.642 5.646 6.384 14.538 1.752 21.038-69.64 97.722-58.5 230.334 26.488 315.323 46.296 46.294 107.846 71.788 173.318 71.788 65.47 0 127.022-25.496 173.314-71.792 46.296-46.294 71.792-107.844 71.792-173.314 0-65.472-25.498-127.022-71.794-173.316zM914.072 691.387c-9.014 0.388-16.626-6.646-16.994-15.66-1.62-39.728-17.998-77.092-46.108-105.202-29.832-29.838-69.496-46.268-111.69-46.268-42.19 0-81.856 16.43-111.692 46.266-61.588 61.588-61.588 161.796 0 223.382 29.834 29.838 69.5 46.268 111.692 46.268 42.194 0 81.858-16.43 111.692-46.266 16.826-16.824 29.35-36.65 37.224-58.93 3.004-8.508 12.342-12.968 20.85-9.962 8.508 3.008 12.97 12.342 9.962 20.85-9.512 26.916-24.628 50.852-44.926 71.15-36.008 36.006-83.88 55.836-134.802 55.836s-98.794-19.83-134.802-55.836c-74.33-74.33-74.33-195.274 0-269.603 36.008-36.006 83.88-55.836 134.802-55.836s98.796 19.83 134.802 55.836c33.93 33.93 53.694 79.024 55.654 126.98 0.364 9.020-6.646 16.628-15.664 16.996z" />
<glyph unicode="&#xe91d;" glyph-name="verified" d="M904.030 840.030c-159.962 159.96-420.237 159.96-580.197 0-155.217-155.219-159.818-404.89-13.803-565.71l-55.308-55.308-29.838 29.838c-3.753 3.751-8.84 5.859-14.145 5.859s-10.394-2.108-14.145-5.859l-172.516-172.518c-15.527-15.525-24.079-36.169-24.079-58.127s8.552-42.6 24.077-58.127c15.527-15.525 36.171-24.077 58.127-24.077 21.958 0 42.6 8.552 58.127 24.077l172.518 172.516c3.751 3.751 5.859 8.84 5.859 14.145s-2.108 10.394-5.859 14.145l-29.838 29.838 55.308 55.308c77.953-70.777 176.783-106.166 275.612-106.166 105.058 0 210.117 39.989 290.098 119.97 159.96 159.962 159.96 420.237 0 580.197zM112.041-11.632c-7.969-7.969-18.565-12.36-29.838-12.36-11.27 0-21.868 4.389-29.836 12.36-7.971 7.969-12.36 18.565-12.36 29.836s4.389 21.868 12.36 29.838l158.372 158.374 59.675-59.675zM875.74 288.124c-144.361-144.363-379.255-144.363-523.616-0.002-144.361 144.363-144.361 379.257-0.002 523.618 72.182 72.182 166.995 108.272 261.809 108.272s189.628-36.091 261.807-108.272c144.363-144.361 144.363-379.255 0.002-523.616zM935.635 553.838c-1.548 8.244-8.522 14.683-16.763 15.883-8.304 1.21-16.837-3.139-20.624-10.652-3.767-7.475-2.566-16.669 3.187-22.806 5.643-6.019 14.613-7.949 22.238-4.809 8.694 3.577 13.833 13.164 11.962 22.384zM907.998 477.602c-10.538 3.325-21.772-2.522-25.095-13.058-13.699-43.414-37.047-81.831-69.401-114.185-53.306-53.306-124.181-82.665-199.571-82.665-75.388 0-146.265 29.358-199.573 82.665-110.043 110.045-110.043 289.098 0 399.143 53.308 53.308 124.185 82.665 199.573 82.665 75.39 0 146.265-29.358 199.571-82.665 31.99-31.99 56.029-71.601 69.515-114.549 3.309-10.542 14.539-16.401 25.079-13.090 10.54 3.309 16.401 14.539 13.090 25.079-15.411 49.073-42.864 94.322-79.395 130.853-60.863 60.865-141.787 94.384-227.861 94.384s-166.997-33.518-227.863-94.384c-125.642-125.644-125.642-330.080 0-455.723 60.865-60.863 141.787-94.384 227.863-94.384s166.997 33.518 227.861 94.384c36.425 36.423 63.834 81.527 79.265 130.436 3.323 10.538-2.522 21.774-13.058 25.097zM667.183 652.534l-77.543-77.545-28.961 28.965c-25.863 25.861-67.941 25.861-93.802 0s-25.861-67.941 0-93.802l88.023-88.023c9.58-9.578 22.16-14.367 34.743-14.367s25.165 4.789 34.743 14.367l136.602 136.604c25.861 25.861 25.861 67.939 0 93.802 0 0 0 0 0 0.002-25.865 25.859-67.943 25.857-93.804-0.004zM732.695 587.024l-136.602-136.604c-3.557-3.559-9.346-3.559-12.904-0.002l-88.021 88.023c-10.262 10.262-10.262 26.959 0 37.221 5.131 5.131 11.87 7.697 18.611 7.697 6.739 0 13.481-2.566 18.609-7.695l43.108-43.108c3.753-3.753 8.84-5.859 14.145-5.859s10.394 2.108 14.145 5.859l91.687 91.687c10.262 10.264 26.961 10.262 37.221 0.002 10.262-10.262 10.262-26.959 0-37.221z" />
<glyph unicode="&#xe91e;" glyph-name="share" d="M948.664 789.336c0-76.586-62.078-138.672-138.664-138.672s-138.664 62.086-138.664 138.672c0 76.578 62.078 138.664 138.664 138.664s138.664-62.086 138.664-138.664zM810 618.664c-94.125 0-170.664 76.547-170.664 170.672 0 94.117 76.539 170.664 170.664 170.664s170.664-76.547 170.664-170.664c0-94.125-76.539-170.672-170.664-170.672zM810 896c-58.836 0-106.664-47.875-106.664-106.664 0-58.797 47.828-106.672 106.664-106.672s106.664 47.875 106.664 106.672c0 58.789-47.828 106.664-106.664 106.664zM948.664 106.664c0-76.578-62.078-138.664-138.664-138.664s-138.664 62.086-138.664 138.664c0 76.586 62.078 138.672 138.664 138.672s138.664-62.086 138.664-138.672zM810-64c-94.125 0-170.664 76.547-170.664 170.664 0 94.125 76.539 170.672 170.664 170.672s170.664-76.547 170.664-170.672c0-94.117-76.539-170.664-170.664-170.664zM810 213.336c-58.836 0-106.664-47.875-106.664-106.672 0-58.789 47.828-106.664 106.664-106.664s106.664 47.875 106.664 106.664c0 58.797-47.828 106.672-106.664 106.672zM351.336 448c0-76.586-62.086-138.664-138.672-138.664-76.578 0-138.664 62.078-138.664 138.664s62.086 138.664 138.664 138.664c76.586 0 138.672-62.078 138.672-138.664zM212.664 277.336c-94.117 0-170.664 76.539-170.664 170.664s76.547 170.664 170.664 170.664c94.125 0 170.672-76.539 170.672-170.664s-76.547-170.664-170.672-170.664zM212.664 554.664c-58.836 0-106.664-47.867-106.664-106.664s47.828-106.664 106.664-106.664c58.844 0 106.672 47.867 106.672 106.664s-47.828 106.664-106.672 106.664zM313.406 468.477c-14.852 0-29.273 7.727-37.125 21.547-11.648 20.438-4.477 46.508 15.961 58.203l395.898 225.703c20.438 11.734 46.508 4.563 58.203-15.953 11.648-20.438 4.477-46.508-15.961-58.203l-395.906-225.703c-6.656-3.797-13.906-5.594-21.070-5.594zM709.266 116.477c-7.172 0-14.422 1.797-21.078 5.594l-395.906 225.703c-20.438 11.648-27.602 37.719-15.953 58.203 11.602 20.477 37.711 27.688 58.195 15.953l395.906-225.703c20.438-11.648 27.602-37.719 15.953-58.203-7.891-13.82-22.313-21.547-37.117-21.547z" />
<glyph unicode="&#xe91f;" glyph-name="chat" d="M889.11 577.718h-476c-8.284 0-15-6.716-15-15s6.716-15 15-15h476c8.284 0 15 6.716 15 15s-6.716 15-15 15zM889.11 463.052h-476c-8.284 0-15-6.716-15-15s6.716-15 15-15h476c8.284 0 15 6.716 15 15s-6.716 15-15 15zM889.11 348.386h-476c-8.284 0-15-6.716-15-15s6.716-15 15-15h476c8.284 0 15 6.716 15 15s-6.716 15-15 15zM936.756 708.902h-571.292c-48.106 0-87.244-39.136-87.244-87.244v-359.234c0-48.106 39.136-87.244 87.244-87.244h400.422c4.282 0 8.26-1.926 10.916-5.288l129.31-163.706c5.096-6.452 12.532-9.968 20.318-9.968 2.894 0 5.838 0.486 8.726 1.49 10.654 3.7 17.538 13.378 17.538 24.656v154.306c40.45 7.556 71.306 43.318 71.306 85.754v359.236c0 48.106-39.136 87.242-87.244 87.242zM994 262.424c0-31.154-25.346-56.824-56.5-57.22-8.208-0.106-14.808-6.79-14.808-15v-156.61l-122.348 154.894c-8.378 10.61-20.938 16.694-34.458 16.694h-400.422c-31.564 0-57.244 25.68-57.244 57.244v359.234c0 31.564 25.678 57.244 57.244 57.244h571.292c31.564 0 57.244-25.68 57.244-57.244zM220.988 460.878c-10.26-1.456-19.448-6.738-25.872-14.87l-103.042-130.452v130.742c0 8.21-6.6 14.894-14.808 15-26.062 0.332-47.266 21.806-47.266 47.87v312.722c0 26.406 21.484 47.89 47.89 47.89h497.326c26.406 0 47.89-21.484 47.89-47.89v-57.864c0-8.284 6.716-15 15-15s15 6.716 15 15v57.864c0 42.948-34.942 77.89-77.89 77.89h-497.326c-42.948 0-77.89-34.942-77.89-77.89v-312.722c0-37.334 26.742-68.876 62.076-76.248v-132.732c0-10.656 6.504-19.802 16.572-23.298 2.73-0.948 5.51-1.408 8.246-1.408 7.354 0 14.384 3.324 19.198 9.418l112.568 142.512c1.624 2.058 3.95 3.394 6.546 3.764 8.202 1.164 13.908 8.758 12.742 16.96-1.164 8.202-8.746 13.912-16.96 12.742z" />
<glyph unicode="&#xe920;" glyph-name="SafeSecure" d="M413.214 451.212c-11.714 11.714-30.71 11.714-42.426 0s-11.716-30.71 0-42.426l80-80c5.856-5.856 13.534-8.786 21.212-8.786s15.356 2.93 21.212 8.788l160 160c11.716 11.714 11.716 30.71 0 42.426-11.714 11.714-30.71 11.714-42.426 0l-138.786-138.788zM872 800c-120.958 0-234.678 47.104-320.208 132.634l-18.578 18.578c-11.712 11.718-30.71 11.714-42.426 0l-18.58-18.578c-85.53-85.53-199.248-132.634-320.208-132.634-16.568 0-30-13.432-30-30v-299.244c0-240.542 152.802-454.786 380.23-533.122 3.166-1.090 6.466-1.634 9.77-1.634s6.606 0.544 9.77 1.634c227.428 78.336 380.23 292.582 380.23 533.122v299.244c0 16.568-13.432 30-30 30zM842 470.756c0-211.48-132.18-400.216-330-472.914-197.82 72.696-330 261.432-330 472.914v270.108c57.196 3.31 112.996 16.112 166.256 38.172 61.392 25.43 116.466 61.946 163.744 108.556 47.278-46.61 102.352-83.124 163.742-108.554 53.262-22.060 109.060-34.862 166.258-38.172zM242 450c0-148.878 121.122-270 270-270s270 121.122 270 270-121.12 270-270 270-270-121.122-270-270zM722 450c0-115.794-94.206-210-210-210s-210 94.206-210 210 94.206 210 210 210c115.796 0 210-94.206 210-210z" />
<glyph unicode="&#xe921;" glyph-name="arrow-left" d="M512 960c-282.326 0-512-229.674-512-512s229.674-512 512-512 512 229.674 512 512-229.674 512-512 512zM627.498 264.832c16.682-16.682 16.682-43.648 0-60.33-8.32-8.32-19.242-12.502-30.166-12.502-10.922 0-21.846 4.182-30.166 12.502l-213.332 213.332c-16.682 16.682-16.682 43.648 0 60.33l213.334 213.334c16.682 16.682 43.648 16.682 60.33 0s16.682-43.648 0-60.33l-183.168-183.168 183.168-183.168z" />
<glyph unicode="&#xe922;" glyph-name="arrow-right" d="M512 960c-282.326 0-512-229.674-512-512s229.674-512 512-512 512 229.674 512 512-229.674 512-512 512zM670.166 417.834l-213.334-213.332c-8.32-8.32-19.242-12.502-30.166-12.502-10.922 0-21.846 4.182-30.166 12.502-16.682 16.682-16.682 43.648 0 60.33l183.17 183.168-183.168 183.168c-16.682 16.682-16.682 43.648 0 60.33s43.648 16.682 60.33 0l213.334-213.334c16.682-16.682 16.682-43.646 0-60.33z" />
<glyph unicode="&#xe923;" glyph-name="check" d="M512 960c-281.22 0-512-230.78-512-512s230.78-512 512-512 512 230.78 512 512-230.78 512-512 512zM450.038 215.12l-224.21 224.208 84.844 84.844 143.292-143.292 287.666 261.504 80.742-88.77-372.334-338.494z" />
<glyph unicode="&#xe924;" glyph-name="quote" d="M379 882.6c-183.8-24.6-336.8-169.6-370.8-351.8-7.8-41.2-8.2-57.6-8.2-292v-228.8h438v438h-292.6l1.4 18.6c8 105.8 68 195.8 162.4 243 34.8 17.4 71 27.4 108.4 29.8l20.4 1.2v145.4l-18.4-0.2c-10.2-0.2-28.4-1.6-40.6-3.2zM966 883c-199.6-27.6-353.8-184.6-378-385-1.2-10.6-2-103.8-2-252.4v-235.6h438v438h-292.6l1.2 20.6c4 69.4 33.6 134 85.2 185.4 51.6 51.6 116 81.2 184.8 85.4l21.4 1.2v145.4l-19.4-0.2c-10.8-0.2-28.2-1.4-38.6-2.8z" />
<glyph unicode="&#xe925;" glyph-name="heart" d="M512-7.031c-14.578 0-28.633 5.281-39.586 14.875-41.367 36.172-81.25 70.164-116.438 100.148l-0.18 0.156c-103.164 87.914-192.25 163.836-254.234 238.625-69.289 83.609-101.563 162.883-101.563 249.484 0 84.141 28.852 161.766 81.234 218.586 53.008 57.492 125.742 89.156 204.828 89.156 59.109 0 113.242-18.688 160.891-55.539 24.047-18.602 45.844-41.367 65.047-67.922 19.211 26.555 41 49.32 65.055 67.922 47.648 36.852 101.781 55.539 160.891 55.539 79.078 0 151.82-31.664 204.828-89.156 52.383-56.82 81.227-134.445 81.227-218.586 0-86.602-32.266-165.875-101.555-249.477-61.984-74.797-151.063-150.711-254.211-238.617-35.25-30.031-75.195-64.078-116.656-100.336-10.945-9.578-25.008-14.859-39.578-14.859zM286.063 844.016c-62.133 0-119.211-24.797-160.734-69.828-42.141-45.711-65.352-108.898-65.352-177.93 0-72.836 27.070-137.977 87.766-211.211 58.664-70.789 145.922-145.148 246.953-231.25l0.188-0.156c35.32-30.102 75.359-64.227 117.031-100.664 41.922 36.508 82.023 70.688 117.414 100.836 101.023 86.102 188.273 160.445 246.938 231.234 60.688 73.234 87.758 138.375 87.758 211.211 0 69.031-23.211 132.219-65.352 177.93-41.516 45.031-98.602 69.828-160.727 69.828-45.516 0-87.305-14.469-124.203-43-32.883-25.438-55.789-57.594-69.219-80.094-6.906-11.57-19.063-18.477-32.523-18.477s-25.617 6.906-32.523 18.477c-13.422 22.5-36.328 54.656-69.219 80.094-36.898 28.531-78.688 43-124.195 43z" />
<glyph unicode="&#xe926;" glyph-name="user" d="M512 960c-148.878 0-270-121.122-270-270s121.122-270 270-270 270 121.122 270 270-121.122 270-270 270zM847.932 243.61c-73.92 75.056-171.914 116.39-275.932 116.39h-120c-104.016 0-202.012-41.334-275.932-116.39-73.558-74.688-114.068-173.276-114.068-277.61 0-16.568 13.432-30 30-30h840c16.568 0 30 13.432 30 30 0 104.334-40.51 202.922-114.068 277.61z" />
<glyph unicode="&#xe927;" glyph-name="shop-basket" d="M824.426 558l-231.222 231.222c5.634 11.75 8.796 24.9 8.796 38.778 0 49.626-40.374 90-90 90s-90-40.374-90-90c0-13.878 3.162-27.028 8.796-38.778l-231.222-231.222h-199.574v-180h66.164l40.838-272.25c5.328-35.514 23.246-67.976 50.458-91.41s61.972-36.34 97.882-36.34h513.314c35.91 0 70.672 12.906 97.884 36.338s45.13 55.896 50.458 91.41l40.838 272.252h66.164v180h-199.574zM512 858c16.542 0 30-13.458 30-30s-13.458-30-30-30-30 13.458-30 30 13.458 30 30 30zM473.222 746.796c11.75-5.634 24.9-8.796 38.778-8.796s27.028 3.162 38.778 8.796l188.796-188.796h-455.148l188.796 188.796zM857.662 114.65c-6.662-44.414-44.094-76.65-89.004-76.65h-513.316c-44.912 0-82.342 32.236-89.004 76.65l-39.502 263.35h770.328l-39.502-263.35zM964 438h-904v60h904v-60zM482 318h60v-220h-60v220zM302 318h60v-220h-60v220zM662 318h60v-220h-60v220z" />
<glyph unicode="&#xe928;" glyph-name="map-locator" d="M511.989 960c-217.217 0-393.966-176.727-393.966-393.966 0-205.302 326.986-558.82 364.263-598.459l29.703-31.575 29.681 31.575c37.277 39.639 364.305 393.178 364.305 598.459-0.043 217.239-176.77 393.966-393.987 393.966zM511.989 55.854c-108.683 121.513-312.453 376.859-312.453 510.202 0 172.28 140.152 312.453 312.453 312.453 172.28 0 312.453-140.173 312.453-312.453-0.021-133.216-203.791-388.625-312.453-510.202zM511.989 729.059c-89.895 0-163.025-73.129-163.025-163.025s73.129-163.025 163.025-163.025 163.025 73.129 163.025 163.025c-0.021 89.895-73.15 163.025-163.025 163.025z" />
<glyph unicode="&#xe929;" glyph-name="tick" d="M1009.004 809.008c-19.994 19.996-52.41 19.996-72.408 0l-613.408-613.414-235.784 235.784c-19.994 19.996-52.41 19.994-72.408 0-19.996-19.994-19.996-52.41 0-72.406l271.988-271.984c19.988-19.994 52.428-19.98 72.408 0l649.612 649.612c19.996 19.994 19.994 52.412 0 72.408z" />
<glyph unicode="&#xe92b;" glyph-name="advertising" d="M999.4 355.6l-2.8 1.8c-47 18.6-178.8 87.2-225 180.8-47.2 95.6-163.6 122.8-172.2 124.6-0.2 0-0.4 0-0.6 0l-8.6 0.4c-0.4 0-0.8 0-1.2 0-18-2.8-38.4-24.6-60.4-65-23.8-43.4-47-103.2-65-168.4-18.2-65.2-29.4-128.4-31.4-177.8-2.2-55.2 7-86.2 27.6-91.8 1.8-0.4 3.6-1.2 5.2-1.2 1.4-0.2 46-12.8 87.4-12.8 37.2 0 80.2 7.2 118.8 32 42.2 27 98.6 39 151 43 0 0-2.8-153.8-2.6-157 0.2-3.6 0.6-12 7-14.6 5.2-3.2 23.4-13 44.2-13 1.2 0 2.6 0 3.8 0.2 27.4 1.6 38.6 9 42.6 12.8 0.2 0.2 0.6 0.4 0.8 0.6 5 4.8 6.2 19.2 6.2 19.4l2.8 150.6c12-1.2 22.4-2.4 30.2-3.8h3.4c1.2 0.2 43.2 16.8 49 60.2 8.6 62.8-9.4 78.2-10.2 79zM465 179c-5.6 1.6-15.4 18.6-13.2 72.2 2 48 12.8 109.4 30.6 173.4 17.8 63.8 40.4 122.2 63.4 164.2 25.8 47 43 56.4 48.6 54.8s15.4-18.6 13.2-72.2c-1.2-31.2-6.4-68.2-14.6-107.8-0.2 0-0.4 0.2-0.4 0.2v0c-33.8 9.4-69-10.4-78.6-44.2-9.4-33.8 10.4-69 44.2-78.4 0.4 0 0.6-0.2 1-0.2-14-41-29.8-78-45.6-107-25.8-47-43-56.6-48.6-55zM588.8 444.4c-3.2-13.6-6.6-27.4-10.4-41.4-4.2-14.8-8.6-29.2-13.2-43.4-0.4 0.2-1 0.2-1.4 0.4-23.4 6.6-37.2 30.8-30.6 54.2 5.4 19.4 23.2 32.2 42.4 32.2 3.8 0 7.8-0.6 11.8-1.6 0.4 0 0.8-0.2 1.4-0.4zM903.2 63.4c-2.2-1.4-10-6-29.6-7-14.4-0.8-28 5.4-34.2 8.6 0 2 2.6 157.2 2.6 157.2 23.6 1 46 0.6 65.4-0.6 0 0-3.6-156.2-4.2-158.2zM890 242c-69.2 2-164.4-5.8-229.4-47.4-57.8-37-129.2-30.2-167.6-22.4 11.8 10.8 24.4 28.2 37.6 52.4 23.8 43.4 47 103.2 65 168.4 0.4 1.8 1 3.4 1.4 5.2 0.4 1.4 0.8 2.8 1.2 4.2 4.2 15.2 8.2 30.6 11.6 45.6l1.8 7.4-0.6 0.2c9 42.2 14.6 81.8 16 115.2 1.2 27.6-0.6 49.2-5.2 64.6 36.8-13.2 101.4-44.2 131.8-106 34.2-69.2 111.4-125 171.6-159 5.2-7.2 13-23.4 9.4-52-0.6-3.8-2.6-14.2-3.8-18.8-1.2-4.4-5-14.4-6.4-18-11.4-26.2-26-36-34.4-39.6zM995.4 297.6c-0.6-3.2-2-11.4-3-15.2-1-3.6-4-11.4-5.2-14.4-10.6-24-24.6-30.4-28.8-31.8-7.6 1.2-34 4.4-37 4.6 7.4 7.6 14.8 18.4 21.4 33l0.2 0.4c0.6 1.4 5.4 13.8 7.2 20 1.8 6.4 4 19.6 4.4 21v0.4c2.2 15.8 1.2 28.8-1.2 39.2 4-2 27.8-12.4 34.2-15 2.6-3.6 11.2-16.4 7.8-42.2zM384.8 591.6c-10.2 5.6-22.2 4-30.6-4-36.4-34.4-60.6-78.8-70.2-128s-3.6-99.4 17.2-145c4.4-9.6 13.4-15.4 23.6-15.4 1 0 2.2 0 3.2 0.2 11.6 1.4 20.6 9.8 22.8 21.2v0.4c1 5.2 0.4 10.6-2 15.6-16 35.4-20.6 74.4-13.2 112.8s26.2 72.8 54.4 99.6c4 3.8 6.6 8.6 7.6 14v0.2c2.6 11.6-2.6 22.8-12.8 28.4zM378.8 567.2v0c-0.2-1.6-1-2.8-2-3.8-31.2-29.6-52-67.8-60.2-110.2s-3.2-85.4 14.6-124.6c0.6-1.2 0.8-2.6 0.6-3.8v-0.4c-0.8-4.4-4.8-5.2-5.8-5.4-1.4-0.2-5-0.2-6.8 3.8-19 41.8-24.6 87.8-15.8 133s31 85.8 64.4 117.6c1.4 1.4 3 1.8 4.4 1.8s2.6-0.6 3.4-0.8c0.8-0.6 4-2.8 3.2-7.2zM234.4 468.4v0.2c14.6 74.2 47.2 132.8 97.4 174.4 6 5 10.2 12 11.8 19.6v0.2c2.8 14.8-3.8 29.2-17 36.8-13.2 7.4-28.8 5.6-40-4.4-62.4-56.6-104-130.4-120.4-213.4v-0.4c-16-83-5-167 31.8-242.8 5.8-12.2 17.6-19.4 30.8-19.4 1.6 0 3.2 0 4.6 0.4 15 2 26.6 12.8 29.6 27.6 1.6 7.8 0.2 16-3.4 22.8-31.2 57.4-39.6 124.2-25.2 198.4zM243.4 251c-1.6-7.8-7.6-11.2-12.8-12-5-0.6-11.8 1.2-15.2 8.2-34.8 72-45.4 151.6-30.2 230.4v0.4c15.4 78.8 55 148.8 114.2 202.4 5.8 5.2 12.6 4.4 17 1.8 4.6-2.6 8.8-8 7.4-15.8v0c-0.6-3.4-2.4-6.4-5-8.6-52.8-44-88.8-108.2-104-185.8v-0.2c-15-77.6-5.6-150.8 27-211.2 1.8-2.8 2.4-6.2 1.6-9.6zM99.4 494.6c34.8 158 100.6 228.2 176.8 297.4 6.2 5.6 10.4 13.2 12 21.4v0.2c3 16.2-4 32.2-18.2 40.6-14.4 8.4-31.8 7.2-44.8-3.6-51.4-42.6-94.8-93-129-149.8-35.4-58.8-60.2-123.2-73.4-191.2v0c-13.2-68-14.2-137-3.4-204.8 10.6-65.6 32-128.6 63.6-187.2 7-12.8 20-20.4 34-20.4 2 0 4 0.2 6 0.4 16.4 2.6 29 14.6 32.2 31 1.6 8.2 0.4 16.8-3.2 24.2-44.6 92.4-79.4 182.2-52.6 341.8zM136 132.2c-1.8-9.8-9.4-14.2-15.8-15.2s-15 1-19.8 10c-62.4 115.2-83.2 249.6-58.4 378.6 25.2 128.8 94.8 246 195.8 329.6 7.8 6.4 16.6 5.2 22.2 1.8s10.8-10.4 9-20v0c-0.8-4-2.8-7.6-5.8-10.4-78.8-71.6-146.8-144.2-182.8-308v-0.4c-27.8-165.4 8.2-258.2 54.4-354 1.4-3.8 2-8 1.2-12z" />
<glyph unicode="&#xe92e;" glyph-name="dislike" d="M592 958c-106-2.6-158.2-6-250.8-16.2l-55.6-6.2-9.8 5.4c-17.8 9.6-30.4 11-105.8 11-38 0-74.2-0.8-80.8-2-37.4-6-67.6-36.6-73.4-74.4-1.2-7.8-1.6-82.4-1.4-195.6 0.8-200.2 0.2-189.6 12.6-210.8 6.4-11 23.6-27.4 34.6-33 18.6-9.4 26.2-10.2 109.4-10.2 76.2 0.2 78.4 0.2 91.6 4.8l13.4 4.6 7.4-13.2c12-22 23.2-36.2 47-60.2 12.4-12.6 27.6-30.2 33.8-39 36.8-52 78.8-134 119.4-233l11-27 0.4-31c0.6-51.8 10.8-77 36.4-90 8.4-4.4 12.2-5 28.6-4.8 33.8 0.4 64.2 12.2 88.4 34.6 32.2 29.8 45.2 70.8 41.2 129.8-1.8 29-7.4 54.4-22.6 105.6-14.8 49.4-21 76-22.4 96.4-1.4 19.2-3.4 18.2 24.6 12.4 54.2-11.4 112.4-17.2 153.8-15.4 90.2 3.8 143.4 33 163.2 89.4 6.4 18.2 6.6 49 0.2 69.6l-4.6 14.4 4.8 6.6c11 14.4 20.8 41.2 22.6 61.6 2.4 24.4-5.6 53.4-21.4 78l-7.8 12 4 15.2c5 19 5.4 48 0.8 66.4-5.6 22.8-18.4 45.2-37.6 65.8-5.8 6.2-6 7-6.4 28-1.6 78-59.4 128.4-167.8 146.6-29.8 5-86.2 6.2-181 3.8zM768.6 896.2c82-14.4 121.8-50.8 113.6-103.8-4.2-27.2-4.4-27 15.4-46.2 11.2-11 19.8-21.8 24-29.6 11.2-21 11.6-46.2 1.4-70.6-8.6-20.6-7.2-28.2 9.4-48.2 12.4-15 18.4-30.4 18.4-46.8 0-17.6-5.4-30.6-20.2-48.4-6-7.4-11-15.8-11.8-19.8-1.2-7-0.6-9.4 8.4-30.8 8-18.6 8-39.2 0.4-52.2-18.2-31-60.6-43.6-137.6-41.2-41.4 1.4-61.4 4-111.8 14.2-39.2 8.2-51.6 8.8-63.2 3.4-18.2-8.4-27.2-25.4-28.6-54.2-1.6-32.2 5.6-70.2 24.8-131.8 18.2-58.4 23.8-91.8 20.6-123-4-38.6-22-61.6-54.8-70.4-15.8-4.2-20.2-3.8-22.2 2.8-1 3-1.8 20.2-1.8 38.4v33l-8.8 22c-20 50.8-38 91.2-63.2 142-40.2 81.4-72 130.4-106.8 165-28 27.6-38.8 43.4-49.2 71-5 13.4-5.2 14.2-3 35.8 1.6 15.2 2 77.8 1.6 198.4l-0.6 176.4 29 3.2c83.4 9.4 140.8 12.8 236 14.4 39 0.8 71.4 1.8 72 2.2 2.6 2.8 86.2-1.4 108.6-5.2zM247.2 890.2c5-2.4 10-6.6 13-11.4l4.8-7.8 0.6-176c0.4-123 0-179-1.6-186.2-2.2-10.2-8-17.8-17.4-22.6-3-1.4-27.4-2.2-78-2.2-83.2 0-83.4 0-92 15.2l-4.6 7.8v180.6c0 191.6-0.2 188.4 9.2 196.8 10.8 9.4 11.6 9.6 86.8 9.6 65 0 71.8-0.4 79.2-3.8z" />
<glyph unicode="&#xe92f;" glyph-name="like" d="M617.6 955.8c-13.8-7.2-15.6-14-15.6-56.8 0-33.2 0.4-38 4-45 4.6-9 16-16 26-16s21.4 7 26 16c3.6 7 4 11.8 4 45s-0.4 38-4 45c-7.4 14.6-25.4 19.8-40.4 11.8zM444 888c-8.8-2.2-19.4-13.6-21.2-23-2.6-14 1.2-20.2 29.6-48.4 28.6-28.2 34.6-31.8 48.6-28.6 18 4 28.4 25.8 20.2 41.6-4.8 9-56 58.4-60.8 58.4-2.2 0-5.2 0.4-6.8 0.8-1.4 0.4-5.8 0-9.6-0.8zM804.2 888c-5-1.2-13.6-8.4-32.6-27.4-14.2-14-27.2-28-28.8-31-8.2-15.8 2.2-37.6 20.2-41.6 14-3.2 20 0.4 48.6 28.6 28.4 28.2 32.2 34.4 29.4 48.6-1.6 8.8-14.2 22.8-20.6 22.8-2.2 0-5.2 0.4-6.8 0.8-1.4 0.4-5.6 0-9.4-0.8zM590 775c-12.8-5.6-15.4-12-27-69.4-16.8-81.8-26-106.4-47.4-128.8-16-16.6-31-26.4-79.8-52-22.4-11.8-49.6-26.2-60.4-32-10.6-6-19.8-10.8-20.4-10.8-0.4 0-2.8 3.8-5.2 8.4-5.8 11.2-24.6 29.4-36.6 35.4-20.2 9.8-23.6 10.2-128.8 10.2-94.8 0-98.8-0.2-106.4-4-5.2-2.6-9.4-6.8-12-12-4-7.8-4-11.2-4-284s0-276.2 4-284c2.6-5.2 6.8-9.4 12-12 7.6-3.8 11.6-4 104.8-4 64.2 0 100.6 0.8 107.6 2.2 14.8 3.2 32.4 12.4 43.8 23.2l9.8 9.2 14.6-4.2c39-11.4 85.2-20.8 131.4-26.6 26.2-3.2 321-5 337.2-2 38 7 66.8 36.6 73.2 75 2 12.4 0.8 28-3.4 42.2-1 3.4 0.8 4.8 11.6 9.6 50.6 22 68.4 85 37.2 132.2l-6.2 9.2 6.2 9.2c11.2 16.8 14.8 29.6 14.8 50.8s-3.6 34-14.8 50.8l-6.2 9.2 6.2 9.2c18.2 27.6 20.6 60 6.4 89.8-10.2 21.4-26 35.8-50 45.4-11 4.4-13.6 4.6-102.6 5.6l-91.2 1 8.8 21c22.8 54 32.2 85.6 34.2 117 4.6 71.8-39.4 135.6-108.2 156.8-18.6 5.8-44 7.2-53.2 3.2zM645.4 705.8c21.4-12.2 39.4-37.4 44.6-62.8 4.8-23.2-2-58.6-19.6-101-4.2-10.4-12.2-29.6-17.4-42.4l-9.8-23.6h-23.6c-19.8 0-25-0.6-31.6-4-9-4.6-16-16-16-26s7-21.4 16-26c7.6-3.8 11.4-4 149-4s141.4-0.2 149-4c9-4.6 16-16 16-26s-7-21.4-16-26c-7-3.6-11.8-4-44-4s-37-0.4-44-4c-9-4.6-16-16-16-26s7-21.4 16-26c7-3.6 11.8-4 44-4 42 0 48.8-2 56-16 5-10 5-18 0-28-7.2-14-14-16-56-16s-48.8-2-56-16c-5-10-5-18 0-28 7.2-14 14-16 56-16s48.8-2 56-16c5-10 5-18 0-28-7.2-14-14-16-56-16-32.2 0-37-0.4-44-4-9-4.6-16-16-16-26 0-15.2 14.8-30 30-30s30-14.8 30-30c0-10-7-21.4-16-26-7.6-3.8-11.4-4-144.6-4-134 0-170.2 1.2-209.4 7-25.6 3.8-62.4 11.6-88 18.6l-21 5.8v389.6l24 13.6c13.2 7.4 41.6 22.6 63 33.8 48.2 25 68.4 36.8 86.8 50.4 44.6 33.4 64.4 74 83.2 170.2 2.4 12.2 4.8 23.6 5.2 25.6 1.4 4.4 5.6 3.4 20.2-4.8zM286 472c5.2-2.6 9.4-6.8 12-12 4-7.8 4-11.4 4-224s0-216.2-4-224c-2.6-5.2-6.8-9.4-12-12-7.4-3.8-11.6-4-86-4h-78v480h78c74.4 0 78.6-0.2 86-4zM197.6 111.8c-8.6-4.4-15.6-16.2-15.6-25.8 0-15.2 14.8-30 30-30s30 14.8 30 30c0 10-7 21.4-16 26-9.8 5-18.8 5-28.4-0.2z" />
<glyph unicode="&#xe930;" glyph-name="stop-watch" d="M431 957.2c-16.6-7.6-21-17.6-21-48.8 0-20.4 0.6-24.8 4.6-32.4 6-11.8 14.8-16.8 32.4-18l14-1v-36l-24.6-4.4c-68.2-12-135.4-40.8-187.2-80l-11.6-8.8-15.6 15c-13.8 13.6-16.4 15.2-23.2 15.2-7.2 0-9.4-1.8-36.2-28.6-26.6-26.6-28.6-29-28.6-36 0-6.6 1.8-9.4 15.2-23.2l15-16-11-14.8c-15.6-21-27.4-41-41-69.6-60-124.8-57.4-272.8 7-395.4 97.4-185.8 310-277.6 512.8-221.6 120.8 33.4 223.2 118.8 278.2 232.2 31.6 65.2 44.4 121.6 44.6 195 0.2 95.2-27.2 180.6-82.6 258l-12 16.8 14.8 15.4c22.2 22.8 22 23.4-13.6 59.4-26.4 26.6-28.8 28.4-35.8 28.4-6.8 0-9.4-1.8-23.4-15l-15.6-15-8.8 6.6c-56 42.4-130 73.6-197.2 83.4l-16.6 2.4v37.2l14.6 0.8c12.2 0.6 16 1.6 21.8 6 12.2 9.2 14 16 13.2 47.2-0.6 25.2-1 28-5.4 34.2-9.8 13.8-12.2 14.2-96.2 14-58.4 0-76.4-0.6-81-2.6zM580 909v-17h-136v34h136v-17zM530 841v-17h-34v34h34v-17zM572 784.8c151.2-21.8 279.4-129.2 328-274.4 49.6-148.4 11.8-308.8-99-419.4-128.4-128.4-324.4-157.2-483.2-70.8-102.4 55.6-174.4 148.6-202.8 261.8-15.4 61.2-15.4 134.8 0 196 18.6 74.2 55 138.4 109 192 91.8 91.2 219.4 133.4 348 114.8zM199 694l-11.8-12-12 12 23.6 24 12-12-11.8-12zM838.6 704.4l11.4-11.6-12-11.6-24 23.6 5.4 5.6c3 3 5.8 5.6 6.6 5.6 0.6 0 6.2-5.2 12.6-11.6zM481 754c-128-10.6-243.6-88-302-202.2-17-33.2-28.8-66.6-35-99.8-10.2-53.8-8-119.4 6-170 37.8-136.8 148.2-240.8 285.8-269 124.4-25.8 251.8 12.4 341.4 101.8 96.8 96.8 133.2 237 95.6 368-31 108-108 196-211.2 241.4-52.8 23.2-122 34.6-180.6 29.8zM535.4 720c108.6-8.4 200.8-62 260.8-151.6 50.2-75 68.4-169 49.8-258-34.8-166.2-188-282-357.6-270.2-137.8 9.4-257.6 102.8-300.4 233.4-12.8 39.4-14.8 54.6-14.8 106.4 0 41.2 0.4 49.6 4.4 67.4 23 105.2 88 190 181.4 236.6 42.8 21.4 83 32.8 126.4 35.8 11.8 1 22 1.8 22.6 2 0.6 0 12.8-0.8 27.4-1.8zM512 635.2v-16.8l15.8-0.8 16-0.6 1 6c3.4 20.6 3.6 25.4 1 27.2-1.6 1-9.8 1.8-18.2 1.8h-15.6v-16.8zM581 628.6c-2-7.6-4-14.6-4.4-15.8s6-4.6 14.8-7.8c68.6-24 123.6-79.8 146.8-148.8 8.8-25.6 12-46.2 12-75.2 0-30.4-3.8-53.6-12.4-78-3.4-9.6-5.4-18.2-4.4-19 2.4-2 25.8-12 28.2-12 3 0 15.8 40.6 19.6 62 4.4 24.8 4.4 67.2 0 92-14.8 84.6-70.2 159.4-146.2 197.4-16.2 8.2-43 18.6-47.8 18.6-1.6 0-4.2-5.6-6.2-13.4zM501.4 429.8c-24.4-5.8-39.4-24.6-39.4-49.8 0-21.2 10.8-38.2 29.8-46.6 9.8-4.2 27.8-5 37-1.4 6 2.2 6.2 2 57.2-49l51-51 24 24-51.2 51.6-51.2 51.4 2.8 9c10.6 34-24.4 70.4-60 61.8zM522 394c5.4-2.8 8.2-12.8 5.6-20-5.8-16.6-31.6-12-31.6 5.8 0 13 14 20.6 26 14.2z" />
<glyph unicode="&#xe932;" glyph-name="google" d="M466 958c-98.8-9.6-190-46-270-107.6-39-30-89.6-86.4-118.8-132.4-12.6-19.8-37.2-70.2-46-94.2-9.8-26.8-20.4-68-25.6-99.8-6.2-39-6.2-113 0-152 9-55.2 23.2-99.6 47.4-149 26.4-53.8 53.8-92 97.8-136.2 44.2-44 82.4-71.4 136.2-97.8 49.4-24.2 93.8-38.4 149-47.4 39-6.2 113-6.2 152 0 55.2 9 99.6 23.2 149 47.4 53.8 26.4 92 53.8 136.2 97.8 44 44.2 71.4 82.4 97.8 136.2 17.6 35.8 26.4 59.2 36 95.2 13.2 50.6 15.4 70.2 16.4 153.4l1 74.4h-512.4v-196h301.6l-5.8-15.4c-12.8-33.2-34.8-69.2-58.2-95.6-29.2-32.8-60.2-56.4-98.6-75-46.4-22.6-76.6-29.8-129-31.4-31.8-1-40.4-0.4-61.8 3.2-133.4 22.8-237.4 126.4-260.2 259-5.4 32-5.4 74.4 0 106.4 22.8 132.6 126.8 236.2 260.2 259 32.2 5.4 86 4.6 115.8-1.8 39.8-8.6 79.8-25.6 111.8-47 9.2-6.4 17-11.4 17.4-11.4 0.2 0 22.8 29 50 64.6 27.4 35.4 54 70 59.2 76.8l9.6 12.2-16.4 12c-65 46.8-143.6 77.8-226.6 89.6-24.6 3.4-92 5.2-115 2.8z" />
<glyph unicode="&#xe933;" glyph-name="rupee" d="M184.2 956.4c-9.6-4.8-14.6-12.4-15.6-23.8-1.2-12.6 4-22 15.4-28l8.6-4.6h103.4c86 0 106.4-0.6 122-3.2 48-8.2 90-29.4 125.2-63.2 39.2-37.6 61.8-80.2 71.6-134l1.4-7.6h-213.6c-209.6 0-213.8 0-220.2-4-19.2-11.6-19-36.6 0.2-50.8 5.6-4.2 6.2-4.2 219.4-4.8l213.8-0.4-1-6.6c-17-98.4-87.6-174.4-184.2-197.8-16.6-4-24.4-4.4-129.6-5.4-105.6-1.2-112.4-1.4-118.4-5-12-7.4-17.4-22.8-12.4-36.8 1.4-4.2 72.4-72.6 230-221.8 125.4-118.6 230.8-217.2 234.4-219.2 12-6.8 28.2-2.2 37.8 10.8 4.8 6.2 5.2 21 0.8 29.4-1.8 3.4-92.4 90.6-201.6 193.8l-198.2 187.6 69.8 1.2c76.8 1.2 91 3 129 15.8 101.8 34 180 123.4 199 227.6 1.6 9.6 3.6 19.4 4 21.8l0.8 4.4 79.8 0.6c77.4 0.6 80 0.8 85.6 4.8 19.2 14.2 19.4 39.2 0.2 50.8-6.2 3.8-10.2 4-86 4h-79.6l-0.8 4.6c-0.4 2.4-2.4 12.6-4.2 22.4-10 55.4-38.2 108.2-80 150.2-12 12.2-24.6 24.2-28 26.4l-6 4.2 274.4 0.2 8.6 4.6c11.4 6 16.6 15.4 15.4 28-1 11.2-5.8 18.4-15.4 23.6-6.6 3.6-19.4 3.8-328 3.8-301.6 0-321.4-0.2-327.8-3.6z" />
<glyph unicode="&#xe935;" glyph-name="validation" d="M386.8 956.8c-3.4-1.6-23.4-21.8-44.4-44.6l-38.4-41.6-50.4-23.4c-27.8-13-53-25.8-56-28.8-3-2.8-6.4-7.8-7.4-11.2-1.2-3.4-4.8-30.4-8.4-60l-6.2-53.8-27.8-50.2c-15.4-27.4-28-51.8-28.2-54.2-0.8-11.2 2.8-19.6 28.4-66l27.8-50 6.4-55c3.6-31.8 7.6-57.8 9.2-61.6 4.2-8.6 8.8-11.8 41.4-26.6 15.2-7 28-13.6 28.6-14.8 0.4-1.2-17.2-65.6-39.4-142.8-22-77.4-40-143-40-146 0.2-13.4 15.4-28.2 29.6-28.2 3.6 0 32.2 9 63.6 20.2 31.4 11 57.4 19.8 57.6 19.4 22.4-29 74.4-92.2 78.2-95.2 11.4-9 27.2-8 37.8 2.4 6 6.2 8.6 13.6 34.2 104 15.4 53.4 28.4 97.2 29 97.2s13.6-43.8 29-97.2c23.2-81.4 28.4-98 33-102.8 10-10.8 23.4-13 35.8-5.8 4.4 2.6 18.8 18.8 38.2 43 17 21.4 34.2 42.4 38 46.8l7 8 56.6-20c31.2-11 59.4-20 62.8-20 14.2 0 27.2 11.4 29 25.6 0.6 5.6-9.2 42.8-39.4 148.2-22 77.6-39.8 142-39.4 143.2 0.6 1 13.8 8 29.6 15 30 13.6 40.6 21.4 42.6 31.4 0.6 3 4 29.4 7.4 58.6l6 53 27.8 50c25.6 46.4 29.2 54.8 28.4 66-0.2 2.4-12.8 26.8-28.2 54.2l-27.8 50.2-6.2 53.8c-3.6 29.6-7.2 56.6-8.4 60-1 3.4-4.4 8.4-7.4 11.4-3 2.8-28.2 15.6-56 28.6l-50.6 23.6-38.2 41.6c-37 40-45.8 47.6-56 47.6-2.6 0-29.2-4.8-58.8-10.8l-54-10.8-55 10.8c-30.2 6-57 10.8-59.8 10.8s-7.8-1.4-11.2-3.2zM563 887.2l50.8 10.2 34.6-37.8c38.8-42.2 29.4-35.8 98-67.6 31-14.4 31.4-14.6 32.4-21.8 0.6-4 3.6-27 6.4-51.2l5-44 25-45.2c13.6-24.8 24.8-45.6 24.8-46.4s-10.6-20.4-23.8-43.8c-13-23.4-24.2-44.6-25-46.8-0.6-2.4-4-26-7.2-52.6-3.2-26.4-6.2-49-6.8-49.8-0.4-0.8-21.4-11-46.4-22.6l-45.4-20.8-36-38.6c-29.2-31.2-36.8-38.4-40.2-37.6-2.4 0.4-25 5-50.6 10l-46.2 9.2-46.8-9.2c-25.6-5-48.4-9.4-50.8-10-3.4-0.8-11 6.4-40.2 37.6l-36 38.6-45.4 21c-25 11.6-46 21.6-46.6 22.6-0.4 0.8-3.6 23.2-6.8 49.8s-6.4 50.2-7 52.4c-0.8 2.2-12 23.4-25 46.8-13.2 23.4-23.8 43-23.8 43.8s11.2 21.6 24.8 46.4l25 45.2 6 50.8c3.2 27.8 6.2 51 6.6 51.2 0.4 0.4 16 7.8 34.6 16.6 18.8 8.8 39.8 18.6 47 22 11.6 5.6 16.8 10.4 47.6 44l34.6 37.8 101.8-20.4 51 10.2zM371.2 224.2c13.2-13.8 14.8-14.8 24-15.6 6.4-0.6 21 1.2 41.6 5.2 17.4 3.6 32 6 32.2 5.8 0.8-0.8-52.2-185.6-53.6-186.8-0.6-0.6-12.6 13.4-26.8 31-25.8 32.4-34.8 40.2-46.2 40.2-2.4 0-22-6.2-43.8-14-21.6-7.6-39.8-13.4-40.2-13-0.6 0.6 52.4 189.6 56.8 203 0.8 2 7.4-3.8 21.4-19 11.2-12 26.8-28.6 34.6-36.8zM738 177.4c15.6-54.8 28-100 27.6-100.4s-19 5.6-41.2 13.4c-44.2 15.4-48.8 16-60.4 6.4-3.2-2.8-17.2-19-30.8-35.8l-24.8-30.8-26.8 94.4c-15 52-26.4 94.6-25.8 95 0.8 0.2 14.8-2.2 31-5.6 34.6-7 44-7.4 52.2-2.2 3.4 2 20 18.6 37 37 20.6 22.4 31.2 32.6 32.2 30.8 0.8-1.4 14.2-47.4 29.8-102.2zM485 798c-84.2-10.8-156-72.8-180-155.4-30-103.2 25-217.6 124-257.8 32-13.2 44.4-15.4 82-15.6 29.6-0.2 36.4 0.4 51.8 4.6 90.4 23.8 153.4 96.6 163.2 189.2 8.4 77.4-29 156.2-95.2 200.2-41.6 27.8-96.8 41-145.8 34.8zM532.8 738c63.6-9 115-56 130.6-119.6 5.2-21.6 4.2-55.2-2.4-77.4-12.8-43.6-41.8-78.2-82-97.8-19.4-9.6-34.6-13.2-59-14.6-41.2-2.2-77.4 10.2-109.8 37.4-37.4 31.6-58.8 86.8-52.2 135.6 4.8 37.2 18.8 65.6 44.8 91.6 36 35.8 81.2 51.4 130 44.8zM553 644.4c-3.2-2.2-18.2-16.2-32.8-31.2l-27-27-10.4 9.8c-5.8 5.6-13 11-15.8 12-26.2 10-50-16.6-37.2-41.6 4.8-9.2 43.4-47.4 51-50.4 7.2-2.6 18.4-2.6 23.8 0.2 6.2 3.2 87 83.8 90.6 90.2 5.8 11.2 2.6 25.4-8 35.4-7.2 6.8-25.6 8.2-34.2 2.6z" />
<glyph unicode="&#xe936;" glyph-name="left-arrow" d="M249 703.2c-9.2-4.2-246.4-243-248-249.6-0.8-3.2-0.8-8 0-11 0.8-3.8 40.8-45.2 122.8-127.2 130.4-130.6 127.6-128.2 141.6-122.4 12.4 5.2 17.4 17.4 12.4 30.4-1 3-45.8 49.4-99.4 103l-97.2 97.6 463 0.4c441.8 0.6 463.2 0.8 468.4 4.2 3 2 7 6.8 8.8 10.6 3 6.2 3.2 7.8 0.6 15.2-1.6 4.6-5.6 10.2-8.6 12.4l-5.6 4.2-926.6 1 98.2 98.6c65.4 65.6 98.8 100.2 99.6 104 2.4 9-0.6 18.8-7.2 24.2-3.4 2.8-7.4 5.2-8.8 5.2s-3.8 0.4-5.4 1c-1.4 0.4-5.2-0.4-8.6-1.8z" />
<glyph unicode="&#xe937;" glyph-name="right-arrow" d="M761.2 704c-12.4-3.8-19.4-16.6-16.2-29.4 0.8-3.8 34.2-38.4 99.6-104l98.2-98.6-926.6-1-5.6-4.2c-3-2.2-7-7.8-8.6-12.4-2.6-7.4-2.4-9 0.6-15.2 1.8-3.8 5.8-8.6 8.8-10.6 5.2-3.4 26.6-3.6 468.4-4.2l463-0.4-97.2-97.6c-53.6-53.6-98.4-100-99.4-103-5-13 0-25.2 12.4-30.4 14-5.8 11.2-8.2 141.6 122.4 82 82 122 123.4 122.8 127.2 0.8 3 0.8 7.8 0 11-0.8 3.6-40.6 44.8-121.6 126.2-102.8 103-128.8 127.6-133.8 126-0.4 0-3.2-1-6.4-1.8z" />
</font>
</defs>
</svg>
